<svg viewBox="0 0 57 57" xmlns="http://www.w3.org/2000/svg"><rect width="57px" height="57px" fill="#ffffff"/><path d="M5,4.5a.5,.5 0 1,1 0,-.1M6,4.5a.5,.5 0 1,1 0,-.1M7,4.5a.5,.5 0 1,1 0,-.1M8,4.5a.5,.5 0 1,1 0,-.1M9,4.5a.5,.5 0 1,1 0,-.1M10,4.5a.5,.5 0 1,1 0,-.1M11,4.5a.5,.5 0 1,1 0,-.1M14,4.5a.5,.5 0 1,1 0,-.1M16,4.5a.5,.5 0 1,1 0,-.1M17,4.5a.5,.5 0 1,1 0,-.1M24,4.5a.5,.5 0 1,1 0,-.1M25,4.5a.5,.5 0 1,1 0,-.1M27,4.5a.5,.5 0 1,1 0,-.1M29,4.5a.5,.5 0 1,1 0,-.1M32,4.5a.5,.5 0 1,1 0,-.1M36,4.5a.5,.5 0 1,1 0,-.1M39,4.5a.5,.5 0 1,1 0,-.1M40,4.5a.5,.5 0 1,1 0,-.1M41,4.5a.5,.5 0 1,1 0,-.1M42,4.5a.5,.5 0 1,1 0,-.1M45,4.5a.5,.5 0 1,1 0,-.1M47,4.5a.5,.5 0 1,1 0,-.1M48,4.5a.5,.5 0 1,1 0,-.1M49,4.5a.5,.5 0 1,1 0,-.1M50,4.5a.5,.5 0 1,1 0,-.1M51,4.5a.5,.5 0 1,1 0,-.1M52,4.5a.5,.5 0 1,1 0,-.1M53,4.5a.5,.5 0 1,1 0,-.1M5,5.5a.5,.5 0 1,1 0,-.1M11,5.5a.5,.5 0 1,1 0,-.1M13,5.5a.5,.5 0 1,1 0,-.1M14,5.5a.5,.5 0 1,1 0,-.1M15,5.5a.5,.5 0 1,1 0,-.1M17,5.5a.5,.5 0 1,1 0,-.1M19,5.5a.5,.5 0 1,1 0,-.1M20,5.5a.5,.5 0 1,1 0,-.1M22,5.5a.5,.5 0 1,1 0,-.1M23,5.5a.5,.5 0 1,1 0,-.1M26,5.5a.5,.5 0 1,1 0,-.1M27,5.5a.5,.5 0 1,1 0,-.1M28,5.5a.5,.5 0 1,1 0,-.1M29,5.5a.5,.5 0 1,1 0,-.1M32,5.5a.5,.5 0 1,1 0,-.1M33,5.5a.5,.5 0 1,1 0,-.1M35,5.5a.5,.5 0 1,1 0,-.1M36,5.5a.5,.5 0 1,1 0,-.1M37,5.5a.5,.5 0 1,1 0,-.1M38,5.5a.5,.5 0 1,1 0,-.1M39,5.5a.5,.5 0 1,1 0,-.1M43,5.5a.5,.5 0 1,1 0,-.1M44,5.5a.5,.5 0 1,1 0,-.1M45,5.5a.5,.5 0 1,1 0,-.1M47,5.5a.5,.5 0 1,1 0,-.1M53,5.5a.5,.5 0 1,1 0,-.1M5,6.5a.5,.5 0 1,1 0,-.1M7,6.5a.5,.5 0 1,1 0,-.1M8,6.5a.5,.5 0 1,1 0,-.1M9,6.5a.5,.5 0 1,1 0,-.1M11,6.5a.5,.5 0 1,1 0,-.1M13,6.5a.5,.5 0 1,1 0,-.1M14,6.5a.5,.5 0 1,1 0,-.1M18,6.5a.5,.5 0 1,1 0,-.1M19,6.5a.5,.5 0 1,1 0,-.1M21,6.5a.5,.5 0 1,1 0,-.1M23,6.5a.5,.5 0 1,1 0,-.1M24,6.5a.5,.5 0 1,1 0,-.1M27,6.5a.5,.5 0 1,1 0,-.1M29,6.5a.5,.5 0 1,1 0,-.1M30,6.5a.5,.5 0 1,1 0,-.1M33,6.5a.5,.5 0 1,1 0,-.1M37,6.5a.5,.5 0 1,1 0,-.1M39,6.5a.5,.5 0 1,1 0,-.1M40,6.5a.5,.5 0 1,1 0,-.1M44,6.5a.5,.5 0 1,1 0,-.1M45,6.5a.5,.5 0 1,1 0,-.1M47,6.5a.5,.5 0 1,1 0,-.1M49,6.5a.5,.5 0 1,1 0,-.1M50,6.5a.5,.5 0 1,1 0,-.1M51,6.5a.5,.5 0 1,1 0,-.1M53,6.5a.5,.5 0 1,1 0,-.1M5,7.5a.5,.5 0 1,1 0,-.1M7,7.5a.5,.5 0 1,1 0,-.1M8,7.5a.5,.5 0 1,1 0,-.1M9,7.5a.5,.5 0 1,1 0,-.1M11,7.5a.5,.5 0 1,1 0,-.1M13,7.5a.5,.5 0 1,1 0,-.1M15,7.5a.5,.5 0 1,1 0,-.1M17,7.5a.5,.5 0 1,1 0,-.1M18,7.5a.5,.5 0 1,1 0,-.1M22,7.5a.5,.5 0 1,1 0,-.1M23,7.5a.5,.5 0 1,1 0,-.1M25,7.5a.5,.5 0 1,1 0,-.1M26,7.5a.5,.5 0 1,1 0,-.1M28,7.5a.5,.5 0 1,1 0,-.1M30,7.5a.5,.5 0 1,1 0,-.1M32,7.5a.5,.5 0 1,1 0,-.1M33,7.5a.5,.5 0 1,1 0,-.1M34,7.5a.5,.5 0 1,1 0,-.1M37,7.5a.5,.5 0 1,1 0,-.1M38,7.5a.5,.5 0 1,1 0,-.1M40,7.5a.5,.5 0 1,1 0,-.1M41,7.5a.5,.5 0 1,1 0,-.1M42,7.5a.5,.5 0 1,1 0,-.1M44,7.5a.5,.5 0 1,1 0,-.1M47,7.5a.5,.5 0 1,1 0,-.1M49,7.5a.5,.5 0 1,1 0,-.1M50,7.5a.5,.5 0 1,1 0,-.1M51,7.5a.5,.5 0 1,1 0,-.1M53,7.5a.5,.5 0 1,1 0,-.1M5,8.5a.5,.5 0 1,1 0,-.1M7,8.5a.5,.5 0 1,1 0,-.1M8,8.5a.5,.5 0 1,1 0,-.1M9,8.5a.5,.5 0 1,1 0,-.1M11,8.5a.5,.5 0 1,1 0,-.1M15,8.5a.5,.5 0 1,1 0,-.1M19,8.5a.5,.5 0 1,1 0,-.1M20,8.5a.5,.5 0 1,1 0,-.1M22,8.5a.5,.5 0 1,1 0,-.1M23,8.5a.5,.5 0 1,1 0,-.1M24,8.5a.5,.5 0 1,1 0,-.1M25,8.5a.5,.5 0 1,1 0,-.1M26,8.5a.5,.5 0 1,1 0,-.1M27,8.5a.5,.5 0 1,1 0,-.1M28,8.5a.5,.5 0 1,1 0,-.1M29,8.5a.5,.5 0 1,1 0,-.1M30,8.5a.5,.5 0 1,1 0,-.1M31,8.5a.5,.5 0 1,1 0,-.1M33,8.5a.5,.5 0 1,1 0,-.1M35,8.5a.5,.5 0 1,1 0,-.1M36,8.5a.5,.5 0 1,1 0,-.1M37,8.5a.5,.5 0 1,1 0,-.1M40,8.5a.5,.5 0 1,1 0,-.1M42,8.5a.5,.5 0 1,1 0,-.1M47,8.5a.5,.5 0 1,1 0,-.1M49,8.5a.5,.5 0 1,1 0,-.1M50,8.5a.5,.5 0 1,1 0,-.1M51,8.5a.5,.5 0 1,1 0,-.1M53,8.5a.5,.5 0 1,1 0,-.1M5,9.5a.5,.5 0 1,1 0,-.1M11,9.5a.5,.5 0 1,1 0,-.1M16,9.5a.5,.5 0 1,1 0,-.1M20,9.5a.5,.5 0 1,1 0,-.1M22,9.5a.5,.5 0 1,1 0,-.1M23,9.5a.5,.5 0 1,1 0,-.1M25,9.5a.5,.5 0 1,1 0,-.1M26,9.5a.5,.5 0 1,1 0,-.1M27,9.5a.5,.5 0 1,1 0,-.1M31,9.5a.5,.5 0 1,1 0,-.1M32,9.5a.5,.5 0 1,1 0,-.1M33,9.5a.5,.5 0 1,1 0,-.1M36,9.5a.5,.5 0 1,1 0,-.1M38,9.5a.5,.5 0 1,1 0,-.1M39,9.5a.5,.5 0 1,1 0,-.1M41,9.5a.5,.5 0 1,1 0,-.1M43,9.5a.5,.5 0 1,1 0,-.1M47,9.5a.5,.5 0 1,1 0,-.1M53,9.5a.5,.5 0 1,1 0,-.1M5,10.5a.5,.5 0 1,1 0,-.1M6,10.5a.5,.5 0 1,1 0,-.1M7,10.5a.5,.5 0 1,1 0,-.1M8,10.5a.5,.5 0 1,1 0,-.1M9,10.5a.5,.5 0 1,1 0,-.1M10,10.5a.5,.5 0 1,1 0,-.1M11,10.5a.5,.5 0 1,1 0,-.1M13,10.5a.5,.5 0 1,1 0,-.1M15,10.5a.5,.5 0 1,1 0,-.1M17,10.5a.5,.5 0 1,1 0,-.1M19,10.5a.5,.5 0 1,1 0,-.1M21,10.5a.5,.5 0 1,1 0,-.1M23,10.5a.5,.5 0 1,1 0,-.1M25,10.5a.5,.5 0 1,1 0,-.1M27,10.5a.5,.5 0 1,1 0,-.1M29,10.5a.5,.5 0 1,1 0,-.1M31,10.5a.5,.5 0 1,1 0,-.1M33,10.5a.5,.5 0 1,1 0,-.1M35,10.5a.5,.5 0 1,1 0,-.1M37,10.5a.5,.5 0 1,1 0,-.1M39,10.5a.5,.5 0 1,1 0,-.1M41,10.5a.5,.5 0 1,1 0,-.1M43,10.5a.5,.5 0 1,1 0,-.1M45,10.5a.5,.5 0 1,1 0,-.1M47,10.5a.5,.5 0 1,1 0,-.1M48,10.5a.5,.5 0 1,1 0,-.1M49,10.5a.5,.5 0 1,1 0,-.1M50,10.5a.5,.5 0 1,1 0,-.1M51,10.5a.5,.5 0 1,1 0,-.1M52,10.5a.5,.5 0 1,1 0,-.1M53,10.5a.5,.5 0 1,1 0,-.1M13,11.5a.5,.5 0 1,1 0,-.1M14,11.5a.5,.5 0 1,1 0,-.1M15,11.5a.5,.5 0 1,1 0,-.1M16,11.5a.5,.5 0 1,1 0,-.1M18,11.5a.5,.5 0 1,1 0,-.1M20,11.5a.5,.5 0 1,1 0,-.1M21,11.5a.5,.5 0 1,1 0,-.1M24,11.5a.5,.5 0 1,1 0,-.1M25,11.5a.5,.5 0 1,1 0,-.1M26,11.5a.5,.5 0 1,1 0,-.1M27,11.5a.5,.5 0 1,1 0,-.1M31,11.5a.5,.5 0 1,1 0,-.1M33,11.5a.5,.5 0 1,1 0,-.1M34,11.5a.5,.5 0 1,1 0,-.1M37,11.5a.5,.5 0 1,1 0,-.1M42,11.5a.5,.5 0 1,1 0,-.1M43,11.5a.5,.5 0 1,1 0,-.1M44,11.5a.5,.5 0 1,1 0,-.1M45,11.5a.5,.5 0 1,1 0,-.1M5,12.5a.5,.5 0 1,1 0,-.1M11,12.5a.5,.5 0 1,1 0,-.1M13,12.5a.5,.5 0 1,1 0,-.1M14,12.5a.5,.5 0 1,1 0,-.1M17,12.5a.5,.5 0 1,1 0,-.1M19,12.5a.5,.5 0 1,1 0,-.1M20,12.5a.5,.5 0 1,1 0,-.1M22,12.5a.5,.5 0 1,1 0,-.1M24,12.5a.5,.5 0 1,1 0,-.1M25,12.5a.5,.5 0 1,1 0,-.1M26,12.5a.5,.5 0 1,1 0,-.1M27,12.5a.5,.5 0 1,1 0,-.1M28,12.5a.5,.5 0 1,1 0,-.1M29,12.5a.5,.5 0 1,1 0,-.1M30,12.5a.5,.5 0 1,1 0,-.1M31,12.5a.5,.5 0 1,1 0,-.1M34,12.5a.5,.5 0 1,1 0,-.1M35,12.5a.5,.5 0 1,1 0,-.1M40,12.5a.5,.5 0 1,1 0,-.1M41,12.5a.5,.5 0 1,1 0,-.1M44,12.5a.5,.5 0 1,1 0,-.1M45,12.5a.5,.5 0 1,1 0,-.1M46,12.5a.5,.5 0 1,1 0,-.1M47,12.5a.5,.5 0 1,1 0,-.1M50,12.5a.5,.5 0 1,1 0,-.1M51,12.5a.5,.5 0 1,1 0,-.1M52,12.5a.5,.5 0 1,1 0,-.1M5,13.5a.5,.5 0 1,1 0,-.1M14,13.5a.5,.5 0 1,1 0,-.1M16,13.5a.5,.5 0 1,1 0,-.1M18,13.5a.5,.5 0 1,1 0,-.1M21,13.5a.5,.5 0 1,1 0,-.1M22,13.5a.5,.5 0 1,1 0,-.1M23,13.5a.5,.5 0 1,1 0,-.1M24,13.5a.5,.5 0 1,1 0,-.1M25,13.5a.5,.5 0 1,1 0,-.1M26,13.5a.5,.5 0 1,1 0,-.1M27,13.5a.5,.5 0 1,1 0,-.1M30,13.5a.5,.5 0 1,1 0,-.1M31,13.5a.5,.5 0 1,1 0,-.1M33,13.5a.5,.5 0 1,1 0,-.1M34,13.5a.5,.5 0 1,1 0,-.1M35,13.5a.5,.5 0 1,1 0,-.1M36,13.5a.5,.5 0 1,1 0,-.1M38,13.5a.5,.5 0 1,1 0,-.1M39,13.5a.5,.5 0 1,1 0,-.1M42,13.5a.5,.5 0 1,1 0,-.1M43,13.5a.5,.5 0 1,1 0,-.1M44,13.5a.5,.5 0 1,1 0,-.1M45,13.5a.5,.5 0 1,1 0,-.1M46,13.5a.5,.5 0 1,1 0,-.1M47,13.5a.5,.5 0 1,1 0,-.1M48,13.5a.5,.5 0 1,1 0,-.1M49,13.5a.5,.5 0 1,1 0,-.1M50,13.5a.5,.5 0 1,1 0,-.1M6,14.5a.5,.5 0 1,1 0,-.1M7,14.5a.5,.5 0 1,1 0,-.1M9,14.5a.5,.5 0 1,1 0,-.1M11,14.5a.5,.5 0 1,1 0,-.1M12,14.5a.5,.5 0 1,1 0,-.1M14,14.5a.5,.5 0 1,1 0,-.1M15,14.5a.5,.5 0 1,1 0,-.1M18,14.5a.5,.5 0 1,1 0,-.1M21,14.5a.5,.5 0 1,1 0,-.1M23,14.5a.5,.5 0 1,1 0,-.1M24,14.5a.5,.5 0 1,1 0,-.1M26,14.5a.5,.5 0 1,1 0,-.1M27,14.5a.5,.5 0 1,1 0,-.1M28,14.5a.5,.5 0 1,1 0,-.1M31,14.5a.5,.5 0 1,1 0,-.1M32,14.5a.5,.5 0 1,1 0,-.1M33,14.5a.5,.5 0 1,1 0,-.1M39,14.5a.5,.5 0 1,1 0,-.1M41,14.5a.5,.5 0 1,1 0,-.1M43,14.5a.5,.5 0 1,1 0,-.1M49,14.5a.5,.5 0 1,1 0,-.1M51,14.5a.5,.5 0 1,1 0,-.1M52,14.5a.5,.5 0 1,1 0,-.1M53,14.5a.5,.5 0 1,1 0,-.1M5,15.5a.5,.5 0 1,1 0,-.1M6,15.5a.5,.5 0 1,1 0,-.1M9,15.5a.5,.5 0 1,1 0,-.1M12,15.5a.5,.5 0 1,1 0,-.1M14,15.5a.5,.5 0 1,1 0,-.1M18,15.5a.5,.5 0 1,1 0,-.1M19,15.5a.5,.5 0 1,1 0,-.1M21,15.5a.5,.5 0 1,1 0,-.1M24,15.5a.5,.5 0 1,1 0,-.1M25,15.5a.5,.5 0 1,1 0,-.1M30,15.5a.5,.5 0 1,1 0,-.1M33,15.5a.5,.5 0 1,1 0,-.1M34,15.5a.5,.5 0 1,1 0,-.1M37,15.5a.5,.5 0 1,1 0,-.1M38,15.5a.5,.5 0 1,1 0,-.1M45,15.5a.5,.5 0 1,1 0,-.1M49,15.5a.5,.5 0 1,1 0,-.1M50,15.5a.5,.5 0 1,1 0,-.1M5,16.5a.5,.5 0 1,1 0,-.1M11,16.5a.5,.5 0 1,1 0,-.1M13,16.5a.5,.5 0 1,1 0,-.1M14,16.5a.5,.5 0 1,1 0,-.1M21,16.5a.5,.5 0 1,1 0,-.1M22,16.5a.5,.5 0 1,1 0,-.1M23,16.5a.5,.5 0 1,1 0,-.1M25,16.5a.5,.5 0 1,1 0,-.1M26,16.5a.5,.5 0 1,1 0,-.1M29,16.5a.5,.5 0 1,1 0,-.1M31,16.5a.5,.5 0 1,1 0,-.1M33,16.5a.5,.5 0 1,1 0,-.1M35,16.5a.5,.5 0 1,1 0,-.1M37,16.5a.5,.5 0 1,1 0,-.1M41,16.5a.5,.5 0 1,1 0,-.1M42,16.5a.5,.5 0 1,1 0,-.1M46,16.5a.5,.5 0 1,1 0,-.1M49,16.5a.5,.5 0 1,1 0,-.1M50,16.5a.5,.5 0 1,1 0,-.1M52,16.5a.5,.5 0 1,1 0,-.1M53,16.5a.5,.5 0 1,1 0,-.1M6,17.5a.5,.5 0 1,1 0,-.1M8,17.5a.5,.5 0 1,1 0,-.1M12,17.5a.5,.5 0 1,1 0,-.1M13,17.5a.5,.5 0 1,1 0,-.1M15,17.5a.5,.5 0 1,1 0,-.1M18,17.5a.5,.5 0 1,1 0,-.1M21,17.5a.5,.5 0 1,1 0,-.1M28,17.5a.5,.5 0 1,1 0,-.1M32,17.5a.5,.5 0 1,1 0,-.1M33,17.5a.5,.5 0 1,1 0,-.1M34,17.5a.5,.5 0 1,1 0,-.1M35,17.5a.5,.5 0 1,1 0,-.1M36,17.5a.5,.5 0 1,1 0,-.1M37,17.5a.5,.5 0 1,1 0,-.1M38,17.5a.5,.5 0 1,1 0,-.1M42,17.5a.5,.5 0 1,1 0,-.1M44,17.5a.5,.5 0 1,1 0,-.1M47,17.5a.5,.5 0 1,1 0,-.1M51,17.5a.5,.5 0 1,1 0,-.1M52,17.5a.5,.5 0 1,1 0,-.1M8,18.5a.5,.5 0 1,1 0,-.1M11,18.5a.5,.5 0 1,1 0,-.1M12,18.5a.5,.5 0 1,1 0,-.1M16,18.5a.5,.5 0 1,1 0,-.1M19,18.5a.5,.5 0 1,1 0,-.1M20,18.5a.5,.5 0 1,1 0,-.1M22,18.5a.5,.5 0 1,1 0,-.1M23,18.5a.5,.5 0 1,1 0,-.1M24,18.5a.5,.5 0 1,1 0,-.1M28,18.5a.5,.5 0 1,1 0,-.1M31,18.5a.5,.5 0 1,1 0,-.1M33,18.5a.5,.5 0 1,1 0,-.1M36,18.5a.5,.5 0 1,1 0,-.1M37,18.5a.5,.5 0 1,1 0,-.1M38,18.5a.5,.5 0 1,1 0,-.1M39,18.5a.5,.5 0 1,1 0,-.1M40,18.5a.5,.5 0 1,1 0,-.1M43,18.5a.5,.5 0 1,1 0,-.1M45,18.5a.5,.5 0 1,1 0,-.1M49,18.5a.5,.5 0 1,1 0,-.1M52,18.5a.5,.5 0 1,1 0,-.1M53,18.5a.5,.5 0 1,1 0,-.1M9,19.5a.5,.5 0 1,1 0,-.1M12,19.5a.5,.5 0 1,1 0,-.1M14,19.5a.5,.5 0 1,1 0,-.1M15,19.5a.5,.5 0 1,1 0,-.1M17,19.5a.5,.5 0 1,1 0,-.1M18,19.5a.5,.5 0 1,1 0,-.1M21,19.5a.5,.5 0 1,1 0,-.1M25,19.5a.5,.5 0 1,1 0,-.1M27,19.5a.5,.5 0 1,1 0,-.1M30,19.5a.5,.5 0 1,1 0,-.1M31,19.5a.5,.5 0 1,1 0,-.1M32,19.5a.5,.5 0 1,1 0,-.1M33,19.5a.5,.5 0 1,1 0,-.1M35,19.5a.5,.5 0 1,1 0,-.1M36,19.5a.5,.5 0 1,1 0,-.1M37,19.5a.5,.5 0 1,1 0,-.1M38,19.5a.5,.5 0 1,1 0,-.1M39,19.5a.5,.5 0 1,1 0,-.1M42,19.5a.5,.5 0 1,1 0,-.1M44,19.5a.5,.5 0 1,1 0,-.1M46,19.5a.5,.5 0 1,1 0,-.1M47,19.5a.5,.5 0 1,1 0,-.1M50,19.5a.5,.5 0 1,1 0,-.1M51,19.5a.5,.5 0 1,1 0,-.1M53,19.5a.5,.5 0 1,1 0,-.1M5,20.5a.5,.5 0 1,1 0,-.1M7,20.5a.5,.5 0 1,1 0,-.1M8,20.5a.5,.5 0 1,1 0,-.1M9,20.5a.5,.5 0 1,1 0,-.1M11,20.5a.5,.5 0 1,1 0,-.1M17,20.5a.5,.5 0 1,1 0,-.1M18,20.5a.5,.5 0 1,1 0,-.1M22,20.5a.5,.5 0 1,1 0,-.1M23,20.5a.5,.5 0 1,1 0,-.1M25,20.5a.5,.5 0 1,1 0,-.1M28,20.5a.5,.5 0 1,1 0,-.1M29,20.5a.5,.5 0 1,1 0,-.1M30,20.5a.5,.5 0 1,1 0,-.1M32,20.5a.5,.5 0 1,1 0,-.1M34,20.5a.5,.5 0 1,1 0,-.1M35,20.5a.5,.5 0 1,1 0,-.1M38,20.5a.5,.5 0 1,1 0,-.1M40,20.5a.5,.5 0 1,1 0,-.1M41,20.5a.5,.5 0 1,1 0,-.1M43,20.5a.5,.5 0 1,1 0,-.1M44,20.5a.5,.5 0 1,1 0,-.1M45,20.5a.5,.5 0 1,1 0,-.1M46,20.5a.5,.5 0 1,1 0,-.1M48,20.5a.5,.5 0 1,1 0,-.1M51,20.5a.5,.5 0 1,1 0,-.1M5,21.5a.5,.5 0 1,1 0,-.1M12,21.5a.5,.5 0 1,1 0,-.1M13,21.5a.5,.5 0 1,1 0,-.1M14,21.5a.5,.5 0 1,1 0,-.1M18,21.5a.5,.5 0 1,1 0,-.1M19,21.5a.5,.5 0 1,1 0,-.1M23,21.5a.5,.5 0 1,1 0,-.1M28,21.5a.5,.5 0 1,1 0,-.1M30,21.5a.5,.5 0 1,1 0,-.1M32,21.5a.5,.5 0 1,1 0,-.1M35,21.5a.5,.5 0 1,1 0,-.1M36,21.5a.5,.5 0 1,1 0,-.1M38,21.5a.5,.5 0 1,1 0,-.1M42,21.5a.5,.5 0 1,1 0,-.1M44,21.5a.5,.5 0 1,1 0,-.1M46,21.5a.5,.5 0 1,1 0,-.1M47,21.5a.5,.5 0 1,1 0,-.1M49,21.5a.5,.5 0 1,1 0,-.1M50,21.5a.5,.5 0 1,1 0,-.1M5,22.5a.5,.5 0 1,1 0,-.1M11,22.5a.5,.5 0 1,1 0,-.1M12,22.5a.5,.5 0 1,1 0,-.1M14,22.5a.5,.5 0 1,1 0,-.1M16,22.5a.5,.5 0 1,1 0,-.1M18,22.5a.5,.5 0 1,1 0,-.1M20,22.5a.5,.5 0 1,1 0,-.1M21,22.5a.5,.5 0 1,1 0,-.1M22,22.5a.5,.5 0 1,1 0,-.1M25,22.5a.5,.5 0 1,1 0,-.1M26,22.5a.5,.5 0 1,1 0,-.1M32,22.5a.5,.5 0 1,1 0,-.1M33,22.5a.5,.5 0 1,1 0,-.1M35,22.5a.5,.5 0 1,1 0,-.1M36,22.5a.5,.5 0 1,1 0,-.1M37,22.5a.5,.5 0 1,1 0,-.1M38,22.5a.5,.5 0 1,1 0,-.1M42,22.5a.5,.5 0 1,1 0,-.1M45,22.5a.5,.5 0 1,1 0,-.1M50,22.5a.5,.5 0 1,1 0,-.1M51,22.5a.5,.5 0 1,1 0,-.1M53,22.5a.5,.5 0 1,1 0,-.1M5,23.5a.5,.5 0 1,1 0,-.1M6,23.5a.5,.5 0 1,1 0,-.1M7,23.5a.5,.5 0 1,1 0,-.1M8,23.5a.5,.5 0 1,1 0,-.1M12,23.5a.5,.5 0 1,1 0,-.1M13,23.5a.5,.5 0 1,1 0,-.1M14,23.5a.5,.5 0 1,1 0,-.1M18,23.5a.5,.5 0 1,1 0,-.1M20,23.5a.5,.5 0 1,1 0,-.1M24,23.5a.5,.5 0 1,1 0,-.1M26,23.5a.5,.5 0 1,1 0,-.1M33,23.5a.5,.5 0 1,1 0,-.1M34,23.5a.5,.5 0 1,1 0,-.1M37,23.5a.5,.5 0 1,1 0,-.1M38,23.5a.5,.5 0 1,1 0,-.1M40,23.5a.5,.5 0 1,1 0,-.1M45,23.5a.5,.5 0 1,1 0,-.1M46,23.5a.5,.5 0 1,1 0,-.1M47,23.5a.5,.5 0 1,1 0,-.1M48,23.5a.5,.5 0 1,1 0,-.1M49,23.5a.5,.5 0 1,1 0,-.1M50,23.5a.5,.5 0 1,1 0,-.1M53,23.5a.5,.5 0 1,1 0,-.1M5,24.5a.5,.5 0 1,1 0,-.1M8,24.5a.5,.5 0 1,1 0,-.1M9,24.5a.5,.5 0 1,1 0,-.1M10,24.5a.5,.5 0 1,1 0,-.1M11,24.5a.5,.5 0 1,1 0,-.1M13,24.5a.5,.5 0 1,1 0,-.1M14,24.5a.5,.5 0 1,1 0,-.1M16,24.5a.5,.5 0 1,1 0,-.1M18,24.5a.5,.5 0 1,1 0,-.1M25,24.5a.5,.5 0 1,1 0,-.1M27,24.5a.5,.5 0 1,1 0,-.1M28,24.5a.5,.5 0 1,1 0,-.1M29,24.5a.5,.5 0 1,1 0,-.1M30,24.5a.5,.5 0 1,1 0,-.1M36,24.5a.5,.5 0 1,1 0,-.1M38,24.5a.5,.5 0 1,1 0,-.1M40,24.5a.5,.5 0 1,1 0,-.1M41,24.5a.5,.5 0 1,1 0,-.1M42,24.5a.5,.5 0 1,1 0,-.1M44,24.5a.5,.5 0 1,1 0,-.1M45,24.5a.5,.5 0 1,1 0,-.1M46,24.5a.5,.5 0 1,1 0,-.1M47,24.5a.5,.5 0 1,1 0,-.1M51,24.5a.5,.5 0 1,1 0,-.1M5,25.5a.5,.5 0 1,1 0,-.1M7,25.5a.5,.5 0 1,1 0,-.1M15,25.5a.5,.5 0 1,1 0,-.1M17,25.5a.5,.5 0 1,1 0,-.1M18,25.5a.5,.5 0 1,1 0,-.1M21,25.5a.5,.5 0 1,1 0,-.1M25,25.5a.5,.5 0 1,1 0,-.1M29,25.5a.5,.5 0 1,1 0,-.1M31,25.5a.5,.5 0 1,1 0,-.1M32,25.5a.5,.5 0 1,1 0,-.1M33,25.5a.5,.5 0 1,1 0,-.1M34,25.5a.5,.5 0 1,1 0,-.1M35,25.5a.5,.5 0 1,1 0,-.1M38,25.5a.5,.5 0 1,1 0,-.1M39,25.5a.5,.5 0 1,1 0,-.1M42,25.5a.5,.5 0 1,1 0,-.1M43,25.5a.5,.5 0 1,1 0,-.1M44,25.5a.5,.5 0 1,1 0,-.1M45,25.5a.5,.5 0 1,1 0,-.1M47,25.5a.5,.5 0 1,1 0,-.1M48,25.5a.5,.5 0 1,1 0,-.1M51,25.5a.5,.5 0 1,1 0,-.1M5,26.5a.5,.5 0 1,1 0,-.1M7,26.5a.5,.5 0 1,1 0,-.1M9,26.5a.5,.5 0 1,1 0,-.1M10,26.5a.5,.5 0 1,1 0,-.1M11,26.5a.5,.5 0 1,1 0,-.1M12,26.5a.5,.5 0 1,1 0,-.1M13,26.5a.5,.5 0 1,1 0,-.1M14,26.5a.5,.5 0 1,1 0,-.1M16,26.5a.5,.5 0 1,1 0,-.1M17,26.5a.5,.5 0 1,1 0,-.1M18,26.5a.5,.5 0 1,1 0,-.1M19,26.5a.5,.5 0 1,1 0,-.1M20,26.5a.5,.5 0 1,1 0,-.1M21,26.5a.5,.5 0 1,1 0,-.1M25,26.5a.5,.5 0 1,1 0,-.1M27,26.5a.5,.5 0 1,1 0,-.1M28,26.5a.5,.5 0 1,1 0,-.1M29,26.5a.5,.5 0 1,1 0,-.1M30,26.5a.5,.5 0 1,1 0,-.1M31,26.5a.5,.5 0 1,1 0,-.1M33,26.5a.5,.5 0 1,1 0,-.1M36,26.5a.5,.5 0 1,1 0,-.1M37,26.5a.5,.5 0 1,1 0,-.1M38,26.5a.5,.5 0 1,1 0,-.1M39,26.5a.5,.5 0 1,1 0,-.1M40,26.5a.5,.5 0 1,1 0,-.1M43,26.5a.5,.5 0 1,1 0,-.1M44,26.5a.5,.5 0 1,1 0,-.1M45,26.5a.5,.5 0 1,1 0,-.1M46,26.5a.5,.5 0 1,1 0,-.1M47,26.5a.5,.5 0 1,1 0,-.1M48,26.5a.5,.5 0 1,1 0,-.1M49,26.5a.5,.5 0 1,1 0,-.1M52,26.5a.5,.5 0 1,1 0,-.1M53,26.5a.5,.5 0 1,1 0,-.1M6,27.5a.5,.5 0 1,1 0,-.1M7,27.5a.5,.5 0 1,1 0,-.1M8,27.5a.5,.5 0 1,1 0,-.1M9,27.5a.5,.5 0 1,1 0,-.1M13,27.5a.5,.5 0 1,1 0,-.1M15,27.5a.5,.5 0 1,1 0,-.1M16,27.5a.5,.5 0 1,1 0,-.1M17,27.5a.5,.5 0 1,1 0,-.1M18,27.5a.5,.5 0 1,1 0,-.1M19,27.5a.5,.5 0 1,1 0,-.1M20,27.5a.5,.5 0 1,1 0,-.1M21,27.5a.5,.5 0 1,1 0,-.1M23,27.5a.5,.5 0 1,1 0,-.1M24,27.5a.5,.5 0 1,1 0,-.1M26,27.5a.5,.5 0 1,1 0,-.1M27,27.5a.5,.5 0 1,1 0,-.1M31,27.5a.5,.5 0 1,1 0,-.1M33,27.5a.5,.5 0 1,1 0,-.1M34,27.5a.5,.5 0 1,1 0,-.1M36,27.5a.5,.5 0 1,1 0,-.1M37,27.5a.5,.5 0 1,1 0,-.1M38,27.5a.5,.5 0 1,1 0,-.1M40,27.5a.5,.5 0 1,1 0,-.1M42,27.5a.5,.5 0 1,1 0,-.1M43,27.5a.5,.5 0 1,1 0,-.1M44,27.5a.5,.5 0 1,1 0,-.1M45,27.5a.5,.5 0 1,1 0,-.1M49,27.5a.5,.5 0 1,1 0,-.1M50,27.5a.5,.5 0 1,1 0,-.1M6,28.5a.5,.5 0 1,1 0,-.1M7,28.5a.5,.5 0 1,1 0,-.1M8,28.5a.5,.5 0 1,1 0,-.1M9,28.5a.5,.5 0 1,1 0,-.1M11,28.5a.5,.5 0 1,1 0,-.1M13,28.5a.5,.5 0 1,1 0,-.1M14,28.5a.5,.5 0 1,1 0,-.1M17,28.5a.5,.5 0 1,1 0,-.1M18,28.5a.5,.5 0 1,1 0,-.1M20,28.5a.5,.5 0 1,1 0,-.1M22,28.5a.5,.5 0 1,1 0,-.1M24,28.5a.5,.5 0 1,1 0,-.1M26,28.5a.5,.5 0 1,1 0,-.1M27,28.5a.5,.5 0 1,1 0,-.1M29,28.5a.5,.5 0 1,1 0,-.1M31,28.5a.5,.5 0 1,1 0,-.1M33,28.5a.5,.5 0 1,1 0,-.1M37,28.5a.5,.5 0 1,1 0,-.1M38,28.5a.5,.5 0 1,1 0,-.1M39,28.5a.5,.5 0 1,1 0,-.1M41,28.5a.5,.5 0 1,1 0,-.1M42,28.5a.5,.5 0 1,1 0,-.1M43,28.5a.5,.5 0 1,1 0,-.1M44,28.5a.5,.5 0 1,1 0,-.1M45,28.5a.5,.5 0 1,1 0,-.1M47,28.5a.5,.5 0 1,1 0,-.1M49,28.5a.5,.5 0 1,1 0,-.1M52,28.5a.5,.5 0 1,1 0,-.1M7,29.5a.5,.5 0 1,1 0,-.1M8,29.5a.5,.5 0 1,1 0,-.1M9,29.5a.5,.5 0 1,1 0,-.1M13,29.5a.5,.5 0 1,1 0,-.1M14,29.5a.5,.5 0 1,1 0,-.1M18,29.5a.5,.5 0 1,1 0,-.1M19,29.5a.5,.5 0 1,1 0,-.1M24,29.5a.5,.5 0 1,1 0,-.1M27,29.5a.5,.5 0 1,1 0,-.1M31,29.5a.5,.5 0 1,1 0,-.1M34,29.5a.5,.5 0 1,1 0,-.1M35,29.5a.5,.5 0 1,1 0,-.1M37,29.5a.5,.5 0 1,1 0,-.1M38,29.5a.5,.5 0 1,1 0,-.1M41,29.5a.5,.5 0 1,1 0,-.1M42,29.5a.5,.5 0 1,1 0,-.1M45,29.5a.5,.5 0 1,1 0,-.1M49,29.5a.5,.5 0 1,1 0,-.1M52,29.5a.5,.5 0 1,1 0,-.1M5,30.5a.5,.5 0 1,1 0,-.1M6,30.5a.5,.5 0 1,1 0,-.1M7,30.5a.5,.5 0 1,1 0,-.1M9,30.5a.5,.5 0 1,1 0,-.1M10,30.5a.5,.5 0 1,1 0,-.1M11,30.5a.5,.5 0 1,1 0,-.1M12,30.5a.5,.5 0 1,1 0,-.1M13,30.5a.5,.5 0 1,1 0,-.1M15,30.5a.5,.5 0 1,1 0,-.1M17,30.5a.5,.5 0 1,1 0,-.1M23,30.5a.5,.5 0 1,1 0,-.1M24,30.5a.5,.5 0 1,1 0,-.1M27,30.5a.5,.5 0 1,1 0,-.1M28,30.5a.5,.5 0 1,1 0,-.1M29,30.5a.5,.5 0 1,1 0,-.1M30,30.5a.5,.5 0 1,1 0,-.1M31,30.5a.5,.5 0 1,1 0,-.1M36,30.5a.5,.5 0 1,1 0,-.1M37,30.5a.5,.5 0 1,1 0,-.1M38,30.5a.5,.5 0 1,1 0,-.1M39,30.5a.5,.5 0 1,1 0,-.1M40,30.5a.5,.5 0 1,1 0,-.1M41,30.5a.5,.5 0 1,1 0,-.1M42,30.5a.5,.5 0 1,1 0,-.1M43,30.5a.5,.5 0 1,1 0,-.1M44,30.5a.5,.5 0 1,1 0,-.1M45,30.5a.5,.5 0 1,1 0,-.1M46,30.5a.5,.5 0 1,1 0,-.1M47,30.5a.5,.5 0 1,1 0,-.1M48,30.5a.5,.5 0 1,1 0,-.1M49,30.5a.5,.5 0 1,1 0,-.1M50,30.5a.5,.5 0 1,1 0,-.1M51,30.5a.5,.5 0 1,1 0,-.1M52,30.5a.5,.5 0 1,1 0,-.1M53,30.5a.5,.5 0 1,1 0,-.1M7,31.5a.5,.5 0 1,1 0,-.1M12,31.5a.5,.5 0 1,1 0,-.1M14,31.5a.5,.5 0 1,1 0,-.1M17,31.5a.5,.5 0 1,1 0,-.1M19,31.5a.5,.5 0 1,1 0,-.1M21,31.5a.5,.5 0 1,1 0,-.1M23,31.5a.5,.5 0 1,1 0,-.1M24,31.5a.5,.5 0 1,1 0,-.1M25,31.5a.5,.5 0 1,1 0,-.1M26,31.5a.5,.5 0 1,1 0,-.1M27,31.5a.5,.5 0 1,1 0,-.1M28,31.5a.5,.5 0 1,1 0,-.1M30,31.5a.5,.5 0 1,1 0,-.1M31,31.5a.5,.5 0 1,1 0,-.1M38,31.5a.5,.5 0 1,1 0,-.1M39,31.5a.5,.5 0 1,1 0,-.1M42,31.5a.5,.5 0 1,1 0,-.1M43,31.5a.5,.5 0 1,1 0,-.1M44,31.5a.5,.5 0 1,1 0,-.1M49,31.5a.5,.5 0 1,1 0,-.1M51,31.5a.5,.5 0 1,1 0,-.1M52,31.5a.5,.5 0 1,1 0,-.1M6,32.5a.5,.5 0 1,1 0,-.1M8,32.5a.5,.5 0 1,1 0,-.1M11,32.5a.5,.5 0 1,1 0,-.1M12,32.5a.5,.5 0 1,1 0,-.1M13,32.5a.5,.5 0 1,1 0,-.1M14,32.5a.5,.5 0 1,1 0,-.1M16,32.5a.5,.5 0 1,1 0,-.1M17,32.5a.5,.5 0 1,1 0,-.1M22,32.5a.5,.5 0 1,1 0,-.1M26,32.5a.5,.5 0 1,1 0,-.1M27,32.5a.5,.5 0 1,1 0,-.1M28,32.5a.5,.5 0 1,1 0,-.1M29,32.5a.5,.5 0 1,1 0,-.1M32,32.5a.5,.5 0 1,1 0,-.1M36,32.5a.5,.5 0 1,1 0,-.1M40,32.5a.5,.5 0 1,1 0,-.1M41,32.5a.5,.5 0 1,1 0,-.1M44,32.5a.5,.5 0 1,1 0,-.1M45,32.5a.5,.5 0 1,1 0,-.1M46,32.5a.5,.5 0 1,1 0,-.1M49,32.5a.5,.5 0 1,1 0,-.1M50,32.5a.5,.5 0 1,1 0,-.1M51,32.5a.5,.5 0 1,1 0,-.1M52,32.5a.5,.5 0 1,1 0,-.1M53,32.5a.5,.5 0 1,1 0,-.1M7,33.5a.5,.5 0 1,1 0,-.1M8,33.5a.5,.5 0 1,1 0,-.1M10,33.5a.5,.5 0 1,1 0,-.1M14,33.5a.5,.5 0 1,1 0,-.1M17,33.5a.5,.5 0 1,1 0,-.1M18,33.5a.5,.5 0 1,1 0,-.1M19,33.5a.5,.5 0 1,1 0,-.1M20,33.5a.5,.5 0 1,1 0,-.1M22,33.5a.5,.5 0 1,1 0,-.1M23,33.5a.5,.5 0 1,1 0,-.1M24,33.5a.5,.5 0 1,1 0,-.1M25,33.5a.5,.5 0 1,1 0,-.1M27,33.5a.5,.5 0 1,1 0,-.1M29,33.5a.5,.5 0 1,1 0,-.1M30,33.5a.5,.5 0 1,1 0,-.1M32,33.5a.5,.5 0 1,1 0,-.1M34,33.5a.5,.5 0 1,1 0,-.1M35,33.5a.5,.5 0 1,1 0,-.1M36,33.5a.5,.5 0 1,1 0,-.1M37,33.5a.5,.5 0 1,1 0,-.1M38,33.5a.5,.5 0 1,1 0,-.1M40,33.5a.5,.5 0 1,1 0,-.1M44,33.5a.5,.5 0 1,1 0,-.1M45,33.5a.5,.5 0 1,1 0,-.1M48,33.5a.5,.5 0 1,1 0,-.1M5,34.5a.5,.5 0 1,1 0,-.1M6,34.5a.5,.5 0 1,1 0,-.1M7,34.5a.5,.5 0 1,1 0,-.1M11,34.5a.5,.5 0 1,1 0,-.1M12,34.5a.5,.5 0 1,1 0,-.1M14,34.5a.5,.5 0 1,1 0,-.1M15,34.5a.5,.5 0 1,1 0,-.1M17,34.5a.5,.5 0 1,1 0,-.1M20,34.5a.5,.5 0 1,1 0,-.1M23,34.5a.5,.5 0 1,1 0,-.1M24,34.5a.5,.5 0 1,1 0,-.1M29,34.5a.5,.5 0 1,1 0,-.1M31,34.5a.5,.5 0 1,1 0,-.1M34,34.5a.5,.5 0 1,1 0,-.1M40,34.5a.5,.5 0 1,1 0,-.1M41,34.5a.5,.5 0 1,1 0,-.1M42,34.5a.5,.5 0 1,1 0,-.1M45,34.5a.5,.5 0 1,1 0,-.1M47,34.5a.5,.5 0 1,1 0,-.1M50,34.5a.5,.5 0 1,1 0,-.1M53,34.5a.5,.5 0 1,1 0,-.1M6,35.5a.5,.5 0 1,1 0,-.1M8,35.5a.5,.5 0 1,1 0,-.1M9,35.5a.5,.5 0 1,1 0,-.1M17,35.5a.5,.5 0 1,1 0,-.1M21,35.5a.5,.5 0 1,1 0,-.1M24,35.5a.5,.5 0 1,1 0,-.1M25,35.5a.5,.5 0 1,1 0,-.1M26,35.5a.5,.5 0 1,1 0,-.1M27,35.5a.5,.5 0 1,1 0,-.1M29,35.5a.5,.5 0 1,1 0,-.1M31,35.5a.5,.5 0 1,1 0,-.1M34,35.5a.5,.5 0 1,1 0,-.1M38,35.5a.5,.5 0 1,1 0,-.1M39,35.5a.5,.5 0 1,1 0,-.1M42,35.5a.5,.5 0 1,1 0,-.1M44,35.5a.5,.5 0 1,1 0,-.1M45,35.5a.5,.5 0 1,1 0,-.1M48,35.5a.5,.5 0 1,1 0,-.1M50,35.5a.5,.5 0 1,1 0,-.1M52,35.5a.5,.5 0 1,1 0,-.1M53,35.5a.5,.5 0 1,1 0,-.1M8,36.5a.5,.5 0 1,1 0,-.1M11,36.5a.5,.5 0 1,1 0,-.1M12,36.5a.5,.5 0 1,1 0,-.1M14,36.5a.5,.5 0 1,1 0,-.1M16,36.5a.5,.5 0 1,1 0,-.1M17,36.5a.5,.5 0 1,1 0,-.1M19,36.5a.5,.5 0 1,1 0,-.1M20,36.5a.5,.5 0 1,1 0,-.1M21,36.5a.5,.5 0 1,1 0,-.1M25,36.5a.5,.5 0 1,1 0,-.1M27,36.5a.5,.5 0 1,1 0,-.1M30,36.5a.5,.5 0 1,1 0,-.1M31,36.5a.5,.5 0 1,1 0,-.1M33,36.5a.5,.5 0 1,1 0,-.1M36,36.5a.5,.5 0 1,1 0,-.1M37,36.5a.5,.5 0 1,1 0,-.1M41,36.5a.5,.5 0 1,1 0,-.1M44,36.5a.5,.5 0 1,1 0,-.1M46,36.5a.5,.5 0 1,1 0,-.1M49,36.5a.5,.5 0 1,1 0,-.1M50,36.5a.5,.5 0 1,1 0,-.1M51,36.5a.5,.5 0 1,1 0,-.1M52,36.5a.5,.5 0 1,1 0,-.1M53,36.5a.5,.5 0 1,1 0,-.1M5,37.5a.5,.5 0 1,1 0,-.1M8,37.5a.5,.5 0 1,1 0,-.1M9,37.5a.5,.5 0 1,1 0,-.1M12,37.5a.5,.5 0 1,1 0,-.1M14,37.5a.5,.5 0 1,1 0,-.1M15,37.5a.5,.5 0 1,1 0,-.1M17,37.5a.5,.5 0 1,1 0,-.1M20,37.5a.5,.5 0 1,1 0,-.1M23,37.5a.5,.5 0 1,1 0,-.1M24,37.5a.5,.5 0 1,1 0,-.1M25,37.5a.5,.5 0 1,1 0,-.1M26,37.5a.5,.5 0 1,1 0,-.1M27,37.5a.5,.5 0 1,1 0,-.1M28,37.5a.5,.5 0 1,1 0,-.1M29,37.5a.5,.5 0 1,1 0,-.1M30,37.5a.5,.5 0 1,1 0,-.1M31,37.5a.5,.5 0 1,1 0,-.1M34,37.5a.5,.5 0 1,1 0,-.1M38,37.5a.5,.5 0 1,1 0,-.1M39,37.5a.5,.5 0 1,1 0,-.1M41,37.5a.5,.5 0 1,1 0,-.1M42,37.5a.5,.5 0 1,1 0,-.1M43,37.5a.5,.5 0 1,1 0,-.1M46,37.5a.5,.5 0 1,1 0,-.1M48,37.5a.5,.5 0 1,1 0,-.1M49,37.5a.5,.5 0 1,1 0,-.1M50,37.5a.5,.5 0 1,1 0,-.1M51,37.5a.5,.5 0 1,1 0,-.1M5,38.5a.5,.5 0 1,1 0,-.1M9,38.5a.5,.5 0 1,1 0,-.1M11,38.5a.5,.5 0 1,1 0,-.1M12,38.5a.5,.5 0 1,1 0,-.1M13,38.5a.5,.5 0 1,1 0,-.1M16,38.5a.5,.5 0 1,1 0,-.1M17,38.5a.5,.5 0 1,1 0,-.1M18,38.5a.5,.5 0 1,1 0,-.1M19,38.5a.5,.5 0 1,1 0,-.1M26,38.5a.5,.5 0 1,1 0,-.1M27,38.5a.5,.5 0 1,1 0,-.1M28,38.5a.5,.5 0 1,1 0,-.1M29,38.5a.5,.5 0 1,1 0,-.1M30,38.5a.5,.5 0 1,1 0,-.1M33,38.5a.5,.5 0 1,1 0,-.1M35,38.5a.5,.5 0 1,1 0,-.1M36,38.5a.5,.5 0 1,1 0,-.1M37,38.5a.5,.5 0 1,1 0,-.1M38,38.5a.5,.5 0 1,1 0,-.1M39,38.5a.5,.5 0 1,1 0,-.1M43,38.5a.5,.5 0 1,1 0,-.1M47,38.5a.5,.5 0 1,1 0,-.1M50,38.5a.5,.5 0 1,1 0,-.1M52,38.5a.5,.5 0 1,1 0,-.1M53,38.5a.5,.5 0 1,1 0,-.1M5,39.5a.5,.5 0 1,1 0,-.1M6,39.5a.5,.5 0 1,1 0,-.1M9,39.5a.5,.5 0 1,1 0,-.1M10,39.5a.5,.5 0 1,1 0,-.1M12,39.5a.5,.5 0 1,1 0,-.1M16,39.5a.5,.5 0 1,1 0,-.1M17,39.5a.5,.5 0 1,1 0,-.1M18,39.5a.5,.5 0 1,1 0,-.1M20,39.5a.5,.5 0 1,1 0,-.1M22,39.5a.5,.5 0 1,1 0,-.1M25,39.5a.5,.5 0 1,1 0,-.1M26,39.5a.5,.5 0 1,1 0,-.1M28,39.5a.5,.5 0 1,1 0,-.1M31,39.5a.5,.5 0 1,1 0,-.1M33,39.5a.5,.5 0 1,1 0,-.1M35,39.5a.5,.5 0 1,1 0,-.1M37,39.5a.5,.5 0 1,1 0,-.1M38,39.5a.5,.5 0 1,1 0,-.1M43,39.5a.5,.5 0 1,1 0,-.1M44,39.5a.5,.5 0 1,1 0,-.1M45,39.5a.5,.5 0 1,1 0,-.1M48,39.5a.5,.5 0 1,1 0,-.1M50,39.5a.5,.5 0 1,1 0,-.1M52,39.5a.5,.5 0 1,1 0,-.1M6,40.5a.5,.5 0 1,1 0,-.1M7,40.5a.5,.5 0 1,1 0,-.1M9,40.5a.5,.5 0 1,1 0,-.1M10,40.5a.5,.5 0 1,1 0,-.1M11,40.5a.5,.5 0 1,1 0,-.1M14,40.5a.5,.5 0 1,1 0,-.1M18,40.5a.5,.5 0 1,1 0,-.1M19,40.5a.5,.5 0 1,1 0,-.1M20,40.5a.5,.5 0 1,1 0,-.1M24,40.5a.5,.5 0 1,1 0,-.1M26,40.5a.5,.5 0 1,1 0,-.1M27,40.5a.5,.5 0 1,1 0,-.1M28,40.5a.5,.5 0 1,1 0,-.1M31,40.5a.5,.5 0 1,1 0,-.1M32,40.5a.5,.5 0 1,1 0,-.1M33,40.5a.5,.5 0 1,1 0,-.1M37,40.5a.5,.5 0 1,1 0,-.1M39,40.5a.5,.5 0 1,1 0,-.1M41,40.5a.5,.5 0 1,1 0,-.1M44,40.5a.5,.5 0 1,1 0,-.1M46,40.5a.5,.5 0 1,1 0,-.1M47,40.5a.5,.5 0 1,1 0,-.1M48,40.5a.5,.5 0 1,1 0,-.1M53,40.5a.5,.5 0 1,1 0,-.1M6,41.5a.5,.5 0 1,1 0,-.1M7,41.5a.5,.5 0 1,1 0,-.1M13,41.5a.5,.5 0 1,1 0,-.1M14,41.5a.5,.5 0 1,1 0,-.1M15,41.5a.5,.5 0 1,1 0,-.1M16,41.5a.5,.5 0 1,1 0,-.1M18,41.5a.5,.5 0 1,1 0,-.1M19,41.5a.5,.5 0 1,1 0,-.1M20,41.5a.5,.5 0 1,1 0,-.1M22,41.5a.5,.5 0 1,1 0,-.1M23,41.5a.5,.5 0 1,1 0,-.1M24,41.5a.5,.5 0 1,1 0,-.1M27,41.5a.5,.5 0 1,1 0,-.1M28,41.5a.5,.5 0 1,1 0,-.1M29,41.5a.5,.5 0 1,1 0,-.1M33,41.5a.5,.5 0 1,1 0,-.1M34,41.5a.5,.5 0 1,1 0,-.1M35,41.5a.5,.5 0 1,1 0,-.1M36,41.5a.5,.5 0 1,1 0,-.1M38,41.5a.5,.5 0 1,1 0,-.1M40,41.5a.5,.5 0 1,1 0,-.1M41,41.5a.5,.5 0 1,1 0,-.1M42,41.5a.5,.5 0 1,1 0,-.1M44,41.5a.5,.5 0 1,1 0,-.1M45,41.5a.5,.5 0 1,1 0,-.1M46,41.5a.5,.5 0 1,1 0,-.1M48,41.5a.5,.5 0 1,1 0,-.1M50,41.5a.5,.5 0 1,1 0,-.1M6,42.5a.5,.5 0 1,1 0,-.1M10,42.5a.5,.5 0 1,1 0,-.1M11,42.5a.5,.5 0 1,1 0,-.1M12,42.5a.5,.5 0 1,1 0,-.1M16,42.5a.5,.5 0 1,1 0,-.1M18,42.5a.5,.5 0 1,1 0,-.1M21,42.5a.5,.5 0 1,1 0,-.1M23,42.5a.5,.5 0 1,1 0,-.1M24,42.5a.5,.5 0 1,1 0,-.1M25,42.5a.5,.5 0 1,1 0,-.1M32,42.5a.5,.5 0 1,1 0,-.1M37,42.5a.5,.5 0 1,1 0,-.1M38,42.5a.5,.5 0 1,1 0,-.1M39,42.5a.5,.5 0 1,1 0,-.1M41,42.5a.5,.5 0 1,1 0,-.1M43,42.5a.5,.5 0 1,1 0,-.1M47,42.5a.5,.5 0 1,1 0,-.1M48,42.5a.5,.5 0 1,1 0,-.1M50,42.5a.5,.5 0 1,1 0,-.1M51,42.5a.5,.5 0 1,1 0,-.1M52,42.5a.5,.5 0 1,1 0,-.1M53,42.5a.5,.5 0 1,1 0,-.1M6,43.5a.5,.5 0 1,1 0,-.1M7,43.5a.5,.5 0 1,1 0,-.1M8,43.5a.5,.5 0 1,1 0,-.1M13,43.5a.5,.5 0 1,1 0,-.1M14,43.5a.5,.5 0 1,1 0,-.1M17,43.5a.5,.5 0 1,1 0,-.1M18,43.5a.5,.5 0 1,1 0,-.1M20,43.5a.5,.5 0 1,1 0,-.1M21,43.5a.5,.5 0 1,1 0,-.1M23,43.5a.5,.5 0 1,1 0,-.1M24,43.5a.5,.5 0 1,1 0,-.1M26,43.5a.5,.5 0 1,1 0,-.1M27,43.5a.5,.5 0 1,1 0,-.1M29,43.5a.5,.5 0 1,1 0,-.1M32,43.5a.5,.5 0 1,1 0,-.1M34,43.5a.5,.5 0 1,1 0,-.1M35,43.5a.5,.5 0 1,1 0,-.1M40,43.5a.5,.5 0 1,1 0,-.1M42,43.5a.5,.5 0 1,1 0,-.1M43,43.5a.5,.5 0 1,1 0,-.1M44,43.5a.5,.5 0 1,1 0,-.1M50,43.5a.5,.5 0 1,1 0,-.1M51,43.5a.5,.5 0 1,1 0,-.1M52,43.5a.5,.5 0 1,1 0,-.1M53,43.5a.5,.5 0 1,1 0,-.1M5,44.5a.5,.5 0 1,1 0,-.1M6,44.5a.5,.5 0 1,1 0,-.1M7,44.5a.5,.5 0 1,1 0,-.1M11,44.5a.5,.5 0 1,1 0,-.1M14,44.5a.5,.5 0 1,1 0,-.1M15,44.5a.5,.5 0 1,1 0,-.1M16,44.5a.5,.5 0 1,1 0,-.1M20,44.5a.5,.5 0 1,1 0,-.1M23,44.5a.5,.5 0 1,1 0,-.1M25,44.5a.5,.5 0 1,1 0,-.1M27,44.5a.5,.5 0 1,1 0,-.1M28,44.5a.5,.5 0 1,1 0,-.1M29,44.5a.5,.5 0 1,1 0,-.1M30,44.5a.5,.5 0 1,1 0,-.1M31,44.5a.5,.5 0 1,1 0,-.1M36,44.5a.5,.5 0 1,1 0,-.1M40,44.5a.5,.5 0 1,1 0,-.1M41,44.5a.5,.5 0 1,1 0,-.1M42,44.5a.5,.5 0 1,1 0,-.1M44,44.5a.5,.5 0 1,1 0,-.1M45,44.5a.5,.5 0 1,1 0,-.1M46,44.5a.5,.5 0 1,1 0,-.1M47,44.5a.5,.5 0 1,1 0,-.1M48,44.5a.5,.5 0 1,1 0,-.1M49,44.5a.5,.5 0 1,1 0,-.1M50,44.5a.5,.5 0 1,1 0,-.1M51,44.5a.5,.5 0 1,1 0,-.1M52,44.5a.5,.5 0 1,1 0,-.1M13,45.5a.5,.5 0 1,1 0,-.1M17,45.5a.5,.5 0 1,1 0,-.1M18,45.5a.5,.5 0 1,1 0,-.1M22,45.5a.5,.5 0 1,1 0,-.1M24,45.5a.5,.5 0 1,1 0,-.1M27,45.5a.5,.5 0 1,1 0,-.1M31,45.5a.5,.5 0 1,1 0,-.1M32,45.5a.5,.5 0 1,1 0,-.1M35,45.5a.5,.5 0 1,1 0,-.1M36,45.5a.5,.5 0 1,1 0,-.1M37,45.5a.5,.5 0 1,1 0,-.1M38,45.5a.5,.5 0 1,1 0,-.1M40,45.5a.5,.5 0 1,1 0,-.1M42,45.5a.5,.5 0 1,1 0,-.1M44,45.5a.5,.5 0 1,1 0,-.1M45,45.5a.5,.5 0 1,1 0,-.1M49,45.5a.5,.5 0 1,1 0,-.1M50,45.5a.5,.5 0 1,1 0,-.1M51,45.5a.5,.5 0 1,1 0,-.1M5,46.5a.5,.5 0 1,1 0,-.1M6,46.5a.5,.5 0 1,1 0,-.1M7,46.5a.5,.5 0 1,1 0,-.1M8,46.5a.5,.5 0 1,1 0,-.1M9,46.5a.5,.5 0 1,1 0,-.1M10,46.5a.5,.5 0 1,1 0,-.1M11,46.5a.5,.5 0 1,1 0,-.1M22,46.5a.5,.5 0 1,1 0,-.1M23,46.5a.5,.5 0 1,1 0,-.1M27,46.5a.5,.5 0 1,1 0,-.1M29,46.5a.5,.5 0 1,1 0,-.1M31,46.5a.5,.5 0 1,1 0,-.1M34,46.5a.5,.5 0 1,1 0,-.1M38,46.5a.5,.5 0 1,1 0,-.1M40,46.5a.5,.5 0 1,1 0,-.1M41,46.5a.5,.5 0 1,1 0,-.1M45,46.5a.5,.5 0 1,1 0,-.1M47,46.5a.5,.5 0 1,1 0,-.1M49,46.5a.5,.5 0 1,1 0,-.1M53,46.5a.5,.5 0 1,1 0,-.1M5,47.5a.5,.5 0 1,1 0,-.1M11,47.5a.5,.5 0 1,1 0,-.1M14,47.5a.5,.5 0 1,1 0,-.1M23,47.5a.5,.5 0 1,1 0,-.1M24,47.5a.5,.5 0 1,1 0,-.1M25,47.5a.5,.5 0 1,1 0,-.1M27,47.5a.5,.5 0 1,1 0,-.1M31,47.5a.5,.5 0 1,1 0,-.1M33,47.5a.5,.5 0 1,1 0,-.1M34,47.5a.5,.5 0 1,1 0,-.1M37,47.5a.5,.5 0 1,1 0,-.1M40,47.5a.5,.5 0 1,1 0,-.1M42,47.5a.5,.5 0 1,1 0,-.1M43,47.5a.5,.5 0 1,1 0,-.1M44,47.5a.5,.5 0 1,1 0,-.1M45,47.5a.5,.5 0 1,1 0,-.1M49,47.5a.5,.5 0 1,1 0,-.1M50,47.5a.5,.5 0 1,1 0,-.1M5,48.5a.5,.5 0 1,1 0,-.1M7,48.5a.5,.5 0 1,1 0,-.1M8,48.5a.5,.5 0 1,1 0,-.1M9,48.5a.5,.5 0 1,1 0,-.1M11,48.5a.5,.5 0 1,1 0,-.1M14,48.5a.5,.5 0 1,1 0,-.1M19,48.5a.5,.5 0 1,1 0,-.1M21,48.5a.5,.5 0 1,1 0,-.1M22,48.5a.5,.5 0 1,1 0,-.1M24,48.5a.5,.5 0 1,1 0,-.1M27,48.5a.5,.5 0 1,1 0,-.1M28,48.5a.5,.5 0 1,1 0,-.1M29,48.5a.5,.5 0 1,1 0,-.1M30,48.5a.5,.5 0 1,1 0,-.1M31,48.5a.5,.5 0 1,1 0,-.1M34,48.5a.5,.5 0 1,1 0,-.1M36,48.5a.5,.5 0 1,1 0,-.1M38,48.5a.5,.5 0 1,1 0,-.1M39,48.5a.5,.5 0 1,1 0,-.1M40,48.5a.5,.5 0 1,1 0,-.1M41,48.5a.5,.5 0 1,1 0,-.1M42,48.5a.5,.5 0 1,1 0,-.1M45,48.5a.5,.5 0 1,1 0,-.1M46,48.5a.5,.5 0 1,1 0,-.1M47,48.5a.5,.5 0 1,1 0,-.1M48,48.5a.5,.5 0 1,1 0,-.1M49,48.5a.5,.5 0 1,1 0,-.1M51,48.5a.5,.5 0 1,1 0,-.1M52,48.5a.5,.5 0 1,1 0,-.1M5,49.5a.5,.5 0 1,1 0,-.1M7,49.5a.5,.5 0 1,1 0,-.1M8,49.5a.5,.5 0 1,1 0,-.1M9,49.5a.5,.5 0 1,1 0,-.1M11,49.5a.5,.5 0 1,1 0,-.1M15,49.5a.5,.5 0 1,1 0,-.1M16,49.5a.5,.5 0 1,1 0,-.1M18,49.5a.5,.5 0 1,1 0,-.1M19,49.5a.5,.5 0 1,1 0,-.1M21,49.5a.5,.5 0 1,1 0,-.1M25,49.5a.5,.5 0 1,1 0,-.1M30,49.5a.5,.5 0 1,1 0,-.1M32,49.5a.5,.5 0 1,1 0,-.1M34,49.5a.5,.5 0 1,1 0,-.1M35,49.5a.5,.5 0 1,1 0,-.1M38,49.5a.5,.5 0 1,1 0,-.1M39,49.5a.5,.5 0 1,1 0,-.1M40,49.5a.5,.5 0 1,1 0,-.1M41,49.5a.5,.5 0 1,1 0,-.1M42,49.5a.5,.5 0 1,1 0,-.1M43,49.5a.5,.5 0 1,1 0,-.1M46,49.5a.5,.5 0 1,1 0,-.1M48,49.5a.5,.5 0 1,1 0,-.1M50,49.5a.5,.5 0 1,1 0,-.1M53,49.5a.5,.5 0 1,1 0,-.1M5,50.5a.5,.5 0 1,1 0,-.1M7,50.5a.5,.5 0 1,1 0,-.1M8,50.5a.5,.5 0 1,1 0,-.1M9,50.5a.5,.5 0 1,1 0,-.1M11,50.5a.5,.5 0 1,1 0,-.1M24,50.5a.5,.5 0 1,1 0,-.1M28,50.5a.5,.5 0 1,1 0,-.1M29,50.5a.5,.5 0 1,1 0,-.1M31,50.5a.5,.5 0 1,1 0,-.1M33,50.5a.5,.5 0 1,1 0,-.1M38,50.5a.5,.5 0 1,1 0,-.1M39,50.5a.5,.5 0 1,1 0,-.1M40,50.5a.5,.5 0 1,1 0,-.1M41,50.5a.5,.5 0 1,1 0,-.1M43,50.5a.5,.5 0 1,1 0,-.1M44,50.5a.5,.5 0 1,1 0,-.1M46,50.5a.5,.5 0 1,1 0,-.1M47,50.5a.5,.5 0 1,1 0,-.1M48,50.5a.5,.5 0 1,1 0,-.1M50,50.5a.5,.5 0 1,1 0,-.1M5,51.5a.5,.5 0 1,1 0,-.1M11,51.5a.5,.5 0 1,1 0,-.1M14,51.5a.5,.5 0 1,1 0,-.1M15,51.5a.5,.5 0 1,1 0,-.1M19,51.5a.5,.5 0 1,1 0,-.1M20,51.5a.5,.5 0 1,1 0,-.1M21,51.5a.5,.5 0 1,1 0,-.1M22,51.5a.5,.5 0 1,1 0,-.1M29,51.5a.5,.5 0 1,1 0,-.1M30,51.5a.5,.5 0 1,1 0,-.1M31,51.5a.5,.5 0 1,1 0,-.1M32,51.5a.5,.5 0 1,1 0,-.1M35,51.5a.5,.5 0 1,1 0,-.1M38,51.5a.5,.5 0 1,1 0,-.1M39,51.5a.5,.5 0 1,1 0,-.1M40,51.5a.5,.5 0 1,1 0,-.1M42,51.5a.5,.5 0 1,1 0,-.1M46,51.5a.5,.5 0 1,1 0,-.1M47,51.5a.5,.5 0 1,1 0,-.1M50,51.5a.5,.5 0 1,1 0,-.1M53,51.5a.5,.5 0 1,1 0,-.1M5,52.5a.5,.5 0 1,1 0,-.1M6,52.5a.5,.5 0 1,1 0,-.1M7,52.5a.5,.5 0 1,1 0,-.1M8,52.5a.5,.5 0 1,1 0,-.1M9,52.5a.5,.5 0 1,1 0,-.1M10,52.5a.5,.5 0 1,1 0,-.1M11,52.5a.5,.5 0 1,1 0,-.1M13,52.5a.5,.5 0 1,1 0,-.1M14,52.5a.5,.5 0 1,1 0,-.1M15,52.5a.5,.5 0 1,1 0,-.1M17,52.5a.5,.5 0 1,1 0,-.1M20,52.5a.5,.5 0 1,1 0,-.1M24,52.5a.5,.5 0 1,1 0,-.1M27,52.5a.5,.5 0 1,1 0,-.1M30,52.5a.5,.5 0 1,1 0,-.1M31,52.5a.5,.5 0 1,1 0,-.1M32,52.5a.5,.5 0 1,1 0,-.1M33,52.5a.5,.5 0 1,1 0,-.1M35,52.5a.5,.5 0 1,1 0,-.1M36,52.5a.5,.5 0 1,1 0,-.1M37,52.5a.5,.5 0 1,1 0,-.1M38,52.5a.5,.5 0 1,1 0,-.1M39,52.5a.5,.5 0 1,1 0,-.1M41,52.5a.5,.5 0 1,1 0,-.1M43,52.5a.5,.5 0 1,1 0,-.1M45,52.5a.5,.5 0 1,1 0,-.1M46,52.5a.5,.5 0 1,1 0,-.1M48,52.5a.5,.5 0 1,1 0,-.1M49,52.5a.5,.5 0 1,1 0,-.1M53,52.5a.5,.5 0 1,1 0,-.1" fill="#000000"/></svg>