<svg viewBox="0 0 53 53" xmlns="http://www.w3.org/2000/svg"><rect width="53px" height="53px" fill="#ffffff"/><path d="M5,4.5a.5,.5 0 1,1 0,-.1M6,4.5a.5,.5 0 1,1 0,-.1M7,4.5a.5,.5 0 1,1 0,-.1M8,4.5a.5,.5 0 1,1 0,-.1M9,4.5a.5,.5 0 1,1 0,-.1M10,4.5a.5,.5 0 1,1 0,-.1M11,4.5a.5,.5 0 1,1 0,-.1M13,4.5a.5,.5 0 1,1 0,-.1M14,4.5a.5,.5 0 1,1 0,-.1M17,4.5a.5,.5 0 1,1 0,-.1M20,4.5a.5,.5 0 1,1 0,-.1M21,4.5a.5,.5 0 1,1 0,-.1M24,4.5a.5,.5 0 1,1 0,-.1M25,4.5a.5,.5 0 1,1 0,-.1M26,4.5a.5,.5 0 1,1 0,-.1M31,4.5a.5,.5 0 1,1 0,-.1M34,4.5a.5,.5 0 1,1 0,-.1M35,4.5a.5,.5 0 1,1 0,-.1M41,4.5a.5,.5 0 1,1 0,-.1M43,4.5a.5,.5 0 1,1 0,-.1M44,4.5a.5,.5 0 1,1 0,-.1M45,4.5a.5,.5 0 1,1 0,-.1M46,4.5a.5,.5 0 1,1 0,-.1M47,4.5a.5,.5 0 1,1 0,-.1M48,4.5a.5,.5 0 1,1 0,-.1M49,4.5a.5,.5 0 1,1 0,-.1M5,5.5a.5,.5 0 1,1 0,-.1M11,5.5a.5,.5 0 1,1 0,-.1M16,5.5a.5,.5 0 1,1 0,-.1M18,5.5a.5,.5 0 1,1 0,-.1M19,5.5a.5,.5 0 1,1 0,-.1M21,5.5a.5,.5 0 1,1 0,-.1M22,5.5a.5,.5 0 1,1 0,-.1M23,5.5a.5,.5 0 1,1 0,-.1M28,5.5a.5,.5 0 1,1 0,-.1M29,5.5a.5,.5 0 1,1 0,-.1M30,5.5a.5,.5 0 1,1 0,-.1M33,5.5a.5,.5 0 1,1 0,-.1M36,5.5a.5,.5 0 1,1 0,-.1M37,5.5a.5,.5 0 1,1 0,-.1M38,5.5a.5,.5 0 1,1 0,-.1M40,5.5a.5,.5 0 1,1 0,-.1M43,5.5a.5,.5 0 1,1 0,-.1M49,5.5a.5,.5 0 1,1 0,-.1M5,6.5a.5,.5 0 1,1 0,-.1M7,6.5a.5,.5 0 1,1 0,-.1M8,6.5a.5,.5 0 1,1 0,-.1M9,6.5a.5,.5 0 1,1 0,-.1M11,6.5a.5,.5 0 1,1 0,-.1M14,6.5a.5,.5 0 1,1 0,-.1M16,6.5a.5,.5 0 1,1 0,-.1M18,6.5a.5,.5 0 1,1 0,-.1M21,6.5a.5,.5 0 1,1 0,-.1M22,6.5a.5,.5 0 1,1 0,-.1M23,6.5a.5,.5 0 1,1 0,-.1M27,6.5a.5,.5 0 1,1 0,-.1M29,6.5a.5,.5 0 1,1 0,-.1M30,6.5a.5,.5 0 1,1 0,-.1M31,6.5a.5,.5 0 1,1 0,-.1M34,6.5a.5,.5 0 1,1 0,-.1M37,6.5a.5,.5 0 1,1 0,-.1M38,6.5a.5,.5 0 1,1 0,-.1M40,6.5a.5,.5 0 1,1 0,-.1M43,6.5a.5,.5 0 1,1 0,-.1M45,6.5a.5,.5 0 1,1 0,-.1M46,6.5a.5,.5 0 1,1 0,-.1M47,6.5a.5,.5 0 1,1 0,-.1M49,6.5a.5,.5 0 1,1 0,-.1M5,7.5a.5,.5 0 1,1 0,-.1M7,7.5a.5,.5 0 1,1 0,-.1M8,7.5a.5,.5 0 1,1 0,-.1M9,7.5a.5,.5 0 1,1 0,-.1M11,7.5a.5,.5 0 1,1 0,-.1M13,7.5a.5,.5 0 1,1 0,-.1M20,7.5a.5,.5 0 1,1 0,-.1M21,7.5a.5,.5 0 1,1 0,-.1M22,7.5a.5,.5 0 1,1 0,-.1M25,7.5a.5,.5 0 1,1 0,-.1M26,7.5a.5,.5 0 1,1 0,-.1M28,7.5a.5,.5 0 1,1 0,-.1M31,7.5a.5,.5 0 1,1 0,-.1M33,7.5a.5,.5 0 1,1 0,-.1M35,7.5a.5,.5 0 1,1 0,-.1M36,7.5a.5,.5 0 1,1 0,-.1M40,7.5a.5,.5 0 1,1 0,-.1M41,7.5a.5,.5 0 1,1 0,-.1M43,7.5a.5,.5 0 1,1 0,-.1M45,7.5a.5,.5 0 1,1 0,-.1M46,7.5a.5,.5 0 1,1 0,-.1M47,7.5a.5,.5 0 1,1 0,-.1M49,7.5a.5,.5 0 1,1 0,-.1M5,8.5a.5,.5 0 1,1 0,-.1M7,8.5a.5,.5 0 1,1 0,-.1M8,8.5a.5,.5 0 1,1 0,-.1M9,8.5a.5,.5 0 1,1 0,-.1M11,8.5a.5,.5 0 1,1 0,-.1M13,8.5a.5,.5 0 1,1 0,-.1M15,8.5a.5,.5 0 1,1 0,-.1M16,8.5a.5,.5 0 1,1 0,-.1M20,8.5a.5,.5 0 1,1 0,-.1M21,8.5a.5,.5 0 1,1 0,-.1M25,8.5a.5,.5 0 1,1 0,-.1M26,8.5a.5,.5 0 1,1 0,-.1M27,8.5a.5,.5 0 1,1 0,-.1M28,8.5a.5,.5 0 1,1 0,-.1M29,8.5a.5,.5 0 1,1 0,-.1M32,8.5a.5,.5 0 1,1 0,-.1M35,8.5a.5,.5 0 1,1 0,-.1M37,8.5a.5,.5 0 1,1 0,-.1M38,8.5a.5,.5 0 1,1 0,-.1M39,8.5a.5,.5 0 1,1 0,-.1M40,8.5a.5,.5 0 1,1 0,-.1M41,8.5a.5,.5 0 1,1 0,-.1M43,8.5a.5,.5 0 1,1 0,-.1M45,8.5a.5,.5 0 1,1 0,-.1M46,8.5a.5,.5 0 1,1 0,-.1M47,8.5a.5,.5 0 1,1 0,-.1M49,8.5a.5,.5 0 1,1 0,-.1M5,9.5a.5,.5 0 1,1 0,-.1M11,9.5a.5,.5 0 1,1 0,-.1M13,9.5a.5,.5 0 1,1 0,-.1M14,9.5a.5,.5 0 1,1 0,-.1M16,9.5a.5,.5 0 1,1 0,-.1M19,9.5a.5,.5 0 1,1 0,-.1M21,9.5a.5,.5 0 1,1 0,-.1M23,9.5a.5,.5 0 1,1 0,-.1M24,9.5a.5,.5 0 1,1 0,-.1M25,9.5a.5,.5 0 1,1 0,-.1M29,9.5a.5,.5 0 1,1 0,-.1M30,9.5a.5,.5 0 1,1 0,-.1M31,9.5a.5,.5 0 1,1 0,-.1M32,9.5a.5,.5 0 1,1 0,-.1M38,9.5a.5,.5 0 1,1 0,-.1M43,9.5a.5,.5 0 1,1 0,-.1M49,9.5a.5,.5 0 1,1 0,-.1M5,10.5a.5,.5 0 1,1 0,-.1M6,10.5a.5,.5 0 1,1 0,-.1M7,10.5a.5,.5 0 1,1 0,-.1M8,10.5a.5,.5 0 1,1 0,-.1M9,10.5a.5,.5 0 1,1 0,-.1M10,10.5a.5,.5 0 1,1 0,-.1M11,10.5a.5,.5 0 1,1 0,-.1M13,10.5a.5,.5 0 1,1 0,-.1M15,10.5a.5,.5 0 1,1 0,-.1M17,10.5a.5,.5 0 1,1 0,-.1M19,10.5a.5,.5 0 1,1 0,-.1M21,10.5a.5,.5 0 1,1 0,-.1M23,10.5a.5,.5 0 1,1 0,-.1M25,10.5a.5,.5 0 1,1 0,-.1M27,10.5a.5,.5 0 1,1 0,-.1M29,10.5a.5,.5 0 1,1 0,-.1M31,10.5a.5,.5 0 1,1 0,-.1M33,10.5a.5,.5 0 1,1 0,-.1M35,10.5a.5,.5 0 1,1 0,-.1M37,10.5a.5,.5 0 1,1 0,-.1M39,10.5a.5,.5 0 1,1 0,-.1M41,10.5a.5,.5 0 1,1 0,-.1M43,10.5a.5,.5 0 1,1 0,-.1M44,10.5a.5,.5 0 1,1 0,-.1M45,10.5a.5,.5 0 1,1 0,-.1M46,10.5a.5,.5 0 1,1 0,-.1M47,10.5a.5,.5 0 1,1 0,-.1M48,10.5a.5,.5 0 1,1 0,-.1M49,10.5a.5,.5 0 1,1 0,-.1M13,11.5a.5,.5 0 1,1 0,-.1M16,11.5a.5,.5 0 1,1 0,-.1M18,11.5a.5,.5 0 1,1 0,-.1M19,11.5a.5,.5 0 1,1 0,-.1M20,11.5a.5,.5 0 1,1 0,-.1M21,11.5a.5,.5 0 1,1 0,-.1M24,11.5a.5,.5 0 1,1 0,-.1M25,11.5a.5,.5 0 1,1 0,-.1M29,11.5a.5,.5 0 1,1 0,-.1M30,11.5a.5,.5 0 1,1 0,-.1M31,11.5a.5,.5 0 1,1 0,-.1M32,11.5a.5,.5 0 1,1 0,-.1M34,11.5a.5,.5 0 1,1 0,-.1M35,11.5a.5,.5 0 1,1 0,-.1M37,11.5a.5,.5 0 1,1 0,-.1M38,11.5a.5,.5 0 1,1 0,-.1M39,11.5a.5,.5 0 1,1 0,-.1M5,12.5a.5,.5 0 1,1 0,-.1M9,12.5a.5,.5 0 1,1 0,-.1M11,12.5a.5,.5 0 1,1 0,-.1M12,12.5a.5,.5 0 1,1 0,-.1M13,12.5a.5,.5 0 1,1 0,-.1M14,12.5a.5,.5 0 1,1 0,-.1M19,12.5a.5,.5 0 1,1 0,-.1M21,12.5a.5,.5 0 1,1 0,-.1M23,12.5a.5,.5 0 1,1 0,-.1M25,12.5a.5,.5 0 1,1 0,-.1M26,12.5a.5,.5 0 1,1 0,-.1M27,12.5a.5,.5 0 1,1 0,-.1M28,12.5a.5,.5 0 1,1 0,-.1M29,12.5a.5,.5 0 1,1 0,-.1M32,12.5a.5,.5 0 1,1 0,-.1M37,12.5a.5,.5 0 1,1 0,-.1M39,12.5a.5,.5 0 1,1 0,-.1M42,12.5a.5,.5 0 1,1 0,-.1M43,12.5a.5,.5 0 1,1 0,-.1M44,12.5a.5,.5 0 1,1 0,-.1M45,12.5a.5,.5 0 1,1 0,-.1M46,12.5a.5,.5 0 1,1 0,-.1M49,12.5a.5,.5 0 1,1 0,-.1M6,13.5a.5,.5 0 1,1 0,-.1M7,13.5a.5,.5 0 1,1 0,-.1M8,13.5a.5,.5 0 1,1 0,-.1M12,13.5a.5,.5 0 1,1 0,-.1M13,13.5a.5,.5 0 1,1 0,-.1M14,13.5a.5,.5 0 1,1 0,-.1M17,13.5a.5,.5 0 1,1 0,-.1M18,13.5a.5,.5 0 1,1 0,-.1M19,13.5a.5,.5 0 1,1 0,-.1M20,13.5a.5,.5 0 1,1 0,-.1M21,13.5a.5,.5 0 1,1 0,-.1M22,13.5a.5,.5 0 1,1 0,-.1M23,13.5a.5,.5 0 1,1 0,-.1M25,13.5a.5,.5 0 1,1 0,-.1M26,13.5a.5,.5 0 1,1 0,-.1M27,13.5a.5,.5 0 1,1 0,-.1M29,13.5a.5,.5 0 1,1 0,-.1M31,13.5a.5,.5 0 1,1 0,-.1M33,13.5a.5,.5 0 1,1 0,-.1M34,13.5a.5,.5 0 1,1 0,-.1M35,13.5a.5,.5 0 1,1 0,-.1M37,13.5a.5,.5 0 1,1 0,-.1M38,13.5a.5,.5 0 1,1 0,-.1M40,13.5a.5,.5 0 1,1 0,-.1M41,13.5a.5,.5 0 1,1 0,-.1M42,13.5a.5,.5 0 1,1 0,-.1M43,13.5a.5,.5 0 1,1 0,-.1M44,13.5a.5,.5 0 1,1 0,-.1M45,13.5a.5,.5 0 1,1 0,-.1M46,13.5a.5,.5 0 1,1 0,-.1M47,13.5a.5,.5 0 1,1 0,-.1M5,14.5a.5,.5 0 1,1 0,-.1M6,14.5a.5,.5 0 1,1 0,-.1M7,14.5a.5,.5 0 1,1 0,-.1M10,14.5a.5,.5 0 1,1 0,-.1M11,14.5a.5,.5 0 1,1 0,-.1M12,14.5a.5,.5 0 1,1 0,-.1M13,14.5a.5,.5 0 1,1 0,-.1M14,14.5a.5,.5 0 1,1 0,-.1M15,14.5a.5,.5 0 1,1 0,-.1M17,14.5a.5,.5 0 1,1 0,-.1M19,14.5a.5,.5 0 1,1 0,-.1M21,14.5a.5,.5 0 1,1 0,-.1M22,14.5a.5,.5 0 1,1 0,-.1M26,14.5a.5,.5 0 1,1 0,-.1M27,14.5a.5,.5 0 1,1 0,-.1M29,14.5a.5,.5 0 1,1 0,-.1M31,14.5a.5,.5 0 1,1 0,-.1M32,14.5a.5,.5 0 1,1 0,-.1M33,14.5a.5,.5 0 1,1 0,-.1M34,14.5a.5,.5 0 1,1 0,-.1M35,14.5a.5,.5 0 1,1 0,-.1M36,14.5a.5,.5 0 1,1 0,-.1M37,14.5a.5,.5 0 1,1 0,-.1M38,14.5a.5,.5 0 1,1 0,-.1M41,14.5a.5,.5 0 1,1 0,-.1M42,14.5a.5,.5 0 1,1 0,-.1M43,14.5a.5,.5 0 1,1 0,-.1M44,14.5a.5,.5 0 1,1 0,-.1M45,14.5a.5,.5 0 1,1 0,-.1M48,14.5a.5,.5 0 1,1 0,-.1M6,15.5a.5,.5 0 1,1 0,-.1M9,15.5a.5,.5 0 1,1 0,-.1M12,15.5a.5,.5 0 1,1 0,-.1M16,15.5a.5,.5 0 1,1 0,-.1M19,15.5a.5,.5 0 1,1 0,-.1M20,15.5a.5,.5 0 1,1 0,-.1M21,15.5a.5,.5 0 1,1 0,-.1M24,15.5a.5,.5 0 1,1 0,-.1M25,15.5a.5,.5 0 1,1 0,-.1M27,15.5a.5,.5 0 1,1 0,-.1M28,15.5a.5,.5 0 1,1 0,-.1M29,15.5a.5,.5 0 1,1 0,-.1M33,15.5a.5,.5 0 1,1 0,-.1M35,15.5a.5,.5 0 1,1 0,-.1M36,15.5a.5,.5 0 1,1 0,-.1M37,15.5a.5,.5 0 1,1 0,-.1M38,15.5a.5,.5 0 1,1 0,-.1M39,15.5a.5,.5 0 1,1 0,-.1M41,15.5a.5,.5 0 1,1 0,-.1M42,15.5a.5,.5 0 1,1 0,-.1M44,15.5a.5,.5 0 1,1 0,-.1M7,16.5a.5,.5 0 1,1 0,-.1M9,16.5a.5,.5 0 1,1 0,-.1M11,16.5a.5,.5 0 1,1 0,-.1M13,16.5a.5,.5 0 1,1 0,-.1M14,16.5a.5,.5 0 1,1 0,-.1M16,16.5a.5,.5 0 1,1 0,-.1M18,16.5a.5,.5 0 1,1 0,-.1M20,16.5a.5,.5 0 1,1 0,-.1M22,16.5a.5,.5 0 1,1 0,-.1M23,16.5a.5,.5 0 1,1 0,-.1M24,16.5a.5,.5 0 1,1 0,-.1M27,16.5a.5,.5 0 1,1 0,-.1M28,16.5a.5,.5 0 1,1 0,-.1M35,16.5a.5,.5 0 1,1 0,-.1M37,16.5a.5,.5 0 1,1 0,-.1M38,16.5a.5,.5 0 1,1 0,-.1M43,16.5a.5,.5 0 1,1 0,-.1M44,16.5a.5,.5 0 1,1 0,-.1M46,16.5a.5,.5 0 1,1 0,-.1M48,16.5a.5,.5 0 1,1 0,-.1M5,17.5a.5,.5 0 1,1 0,-.1M6,17.5a.5,.5 0 1,1 0,-.1M7,17.5a.5,.5 0 1,1 0,-.1M8,17.5a.5,.5 0 1,1 0,-.1M13,17.5a.5,.5 0 1,1 0,-.1M17,17.5a.5,.5 0 1,1 0,-.1M19,17.5a.5,.5 0 1,1 0,-.1M20,17.5a.5,.5 0 1,1 0,-.1M21,17.5a.5,.5 0 1,1 0,-.1M31,17.5a.5,.5 0 1,1 0,-.1M32,17.5a.5,.5 0 1,1 0,-.1M35,17.5a.5,.5 0 1,1 0,-.1M38,17.5a.5,.5 0 1,1 0,-.1M40,17.5a.5,.5 0 1,1 0,-.1M41,17.5a.5,.5 0 1,1 0,-.1M43,17.5a.5,.5 0 1,1 0,-.1M44,17.5a.5,.5 0 1,1 0,-.1M45,17.5a.5,.5 0 1,1 0,-.1M46,17.5a.5,.5 0 1,1 0,-.1M5,18.5a.5,.5 0 1,1 0,-.1M6,18.5a.5,.5 0 1,1 0,-.1M11,18.5a.5,.5 0 1,1 0,-.1M12,18.5a.5,.5 0 1,1 0,-.1M15,18.5a.5,.5 0 1,1 0,-.1M16,18.5a.5,.5 0 1,1 0,-.1M17,18.5a.5,.5 0 1,1 0,-.1M19,18.5a.5,.5 0 1,1 0,-.1M20,18.5a.5,.5 0 1,1 0,-.1M23,18.5a.5,.5 0 1,1 0,-.1M25,18.5a.5,.5 0 1,1 0,-.1M27,18.5a.5,.5 0 1,1 0,-.1M30,18.5a.5,.5 0 1,1 0,-.1M31,18.5a.5,.5 0 1,1 0,-.1M32,18.5a.5,.5 0 1,1 0,-.1M33,18.5a.5,.5 0 1,1 0,-.1M34,18.5a.5,.5 0 1,1 0,-.1M36,18.5a.5,.5 0 1,1 0,-.1M40,18.5a.5,.5 0 1,1 0,-.1M41,18.5a.5,.5 0 1,1 0,-.1M43,18.5a.5,.5 0 1,1 0,-.1M48,18.5a.5,.5 0 1,1 0,-.1M6,19.5a.5,.5 0 1,1 0,-.1M7,19.5a.5,.5 0 1,1 0,-.1M9,19.5a.5,.5 0 1,1 0,-.1M13,19.5a.5,.5 0 1,1 0,-.1M18,19.5a.5,.5 0 1,1 0,-.1M21,19.5a.5,.5 0 1,1 0,-.1M24,19.5a.5,.5 0 1,1 0,-.1M26,19.5a.5,.5 0 1,1 0,-.1M27,19.5a.5,.5 0 1,1 0,-.1M30,19.5a.5,.5 0 1,1 0,-.1M32,19.5a.5,.5 0 1,1 0,-.1M35,19.5a.5,.5 0 1,1 0,-.1M36,19.5a.5,.5 0 1,1 0,-.1M37,19.5a.5,.5 0 1,1 0,-.1M38,19.5a.5,.5 0 1,1 0,-.1M40,19.5a.5,.5 0 1,1 0,-.1M42,19.5a.5,.5 0 1,1 0,-.1M43,19.5a.5,.5 0 1,1 0,-.1M44,19.5a.5,.5 0 1,1 0,-.1M48,19.5a.5,.5 0 1,1 0,-.1M9,20.5a.5,.5 0 1,1 0,-.1M11,20.5a.5,.5 0 1,1 0,-.1M15,20.5a.5,.5 0 1,1 0,-.1M19,20.5a.5,.5 0 1,1 0,-.1M20,20.5a.5,.5 0 1,1 0,-.1M22,20.5a.5,.5 0 1,1 0,-.1M23,20.5a.5,.5 0 1,1 0,-.1M26,20.5a.5,.5 0 1,1 0,-.1M29,20.5a.5,.5 0 1,1 0,-.1M31,20.5a.5,.5 0 1,1 0,-.1M32,20.5a.5,.5 0 1,1 0,-.1M37,20.5a.5,.5 0 1,1 0,-.1M38,20.5a.5,.5 0 1,1 0,-.1M39,20.5a.5,.5 0 1,1 0,-.1M43,20.5a.5,.5 0 1,1 0,-.1M46,20.5a.5,.5 0 1,1 0,-.1M48,20.5a.5,.5 0 1,1 0,-.1M49,20.5a.5,.5 0 1,1 0,-.1M5,21.5a.5,.5 0 1,1 0,-.1M6,21.5a.5,.5 0 1,1 0,-.1M7,21.5a.5,.5 0 1,1 0,-.1M8,21.5a.5,.5 0 1,1 0,-.1M14,21.5a.5,.5 0 1,1 0,-.1M16,21.5a.5,.5 0 1,1 0,-.1M17,21.5a.5,.5 0 1,1 0,-.1M19,21.5a.5,.5 0 1,1 0,-.1M20,21.5a.5,.5 0 1,1 0,-.1M26,21.5a.5,.5 0 1,1 0,-.1M27,21.5a.5,.5 0 1,1 0,-.1M28,21.5a.5,.5 0 1,1 0,-.1M30,21.5a.5,.5 0 1,1 0,-.1M31,21.5a.5,.5 0 1,1 0,-.1M34,21.5a.5,.5 0 1,1 0,-.1M35,21.5a.5,.5 0 1,1 0,-.1M37,21.5a.5,.5 0 1,1 0,-.1M40,21.5a.5,.5 0 1,1 0,-.1M41,21.5a.5,.5 0 1,1 0,-.1M43,21.5a.5,.5 0 1,1 0,-.1M44,21.5a.5,.5 0 1,1 0,-.1M46,21.5a.5,.5 0 1,1 0,-.1M47,21.5a.5,.5 0 1,1 0,-.1M48,21.5a.5,.5 0 1,1 0,-.1M5,22.5a.5,.5 0 1,1 0,-.1M6,22.5a.5,.5 0 1,1 0,-.1M7,22.5a.5,.5 0 1,1 0,-.1M9,22.5a.5,.5 0 1,1 0,-.1M10,22.5a.5,.5 0 1,1 0,-.1M11,22.5a.5,.5 0 1,1 0,-.1M12,22.5a.5,.5 0 1,1 0,-.1M16,22.5a.5,.5 0 1,1 0,-.1M17,22.5a.5,.5 0 1,1 0,-.1M18,22.5a.5,.5 0 1,1 0,-.1M20,22.5a.5,.5 0 1,1 0,-.1M21,22.5a.5,.5 0 1,1 0,-.1M23,22.5a.5,.5 0 1,1 0,-.1M24,22.5a.5,.5 0 1,1 0,-.1M25,22.5a.5,.5 0 1,1 0,-.1M31,22.5a.5,.5 0 1,1 0,-.1M33,22.5a.5,.5 0 1,1 0,-.1M34,22.5a.5,.5 0 1,1 0,-.1M35,22.5a.5,.5 0 1,1 0,-.1M36,22.5a.5,.5 0 1,1 0,-.1M38,22.5a.5,.5 0 1,1 0,-.1M41,22.5a.5,.5 0 1,1 0,-.1M43,22.5a.5,.5 0 1,1 0,-.1M45,22.5a.5,.5 0 1,1 0,-.1M46,22.5a.5,.5 0 1,1 0,-.1M5,23.5a.5,.5 0 1,1 0,-.1M6,23.5a.5,.5 0 1,1 0,-.1M9,23.5a.5,.5 0 1,1 0,-.1M12,23.5a.5,.5 0 1,1 0,-.1M15,23.5a.5,.5 0 1,1 0,-.1M16,23.5a.5,.5 0 1,1 0,-.1M18,23.5a.5,.5 0 1,1 0,-.1M24,23.5a.5,.5 0 1,1 0,-.1M27,23.5a.5,.5 0 1,1 0,-.1M35,23.5a.5,.5 0 1,1 0,-.1M37,23.5a.5,.5 0 1,1 0,-.1M38,23.5a.5,.5 0 1,1 0,-.1M41,23.5a.5,.5 0 1,1 0,-.1M43,23.5a.5,.5 0 1,1 0,-.1M44,23.5a.5,.5 0 1,1 0,-.1M49,23.5a.5,.5 0 1,1 0,-.1M7,24.5a.5,.5 0 1,1 0,-.1M8,24.5a.5,.5 0 1,1 0,-.1M9,24.5a.5,.5 0 1,1 0,-.1M10,24.5a.5,.5 0 1,1 0,-.1M11,24.5a.5,.5 0 1,1 0,-.1M12,24.5a.5,.5 0 1,1 0,-.1M13,24.5a.5,.5 0 1,1 0,-.1M14,24.5a.5,.5 0 1,1 0,-.1M15,24.5a.5,.5 0 1,1 0,-.1M17,24.5a.5,.5 0 1,1 0,-.1M18,24.5a.5,.5 0 1,1 0,-.1M19,24.5a.5,.5 0 1,1 0,-.1M20,24.5a.5,.5 0 1,1 0,-.1M21,24.5a.5,.5 0 1,1 0,-.1M22,24.5a.5,.5 0 1,1 0,-.1M23,24.5a.5,.5 0 1,1 0,-.1M24,24.5a.5,.5 0 1,1 0,-.1M25,24.5a.5,.5 0 1,1 0,-.1M26,24.5a.5,.5 0 1,1 0,-.1M27,24.5a.5,.5 0 1,1 0,-.1M28,24.5a.5,.5 0 1,1 0,-.1M29,24.5a.5,.5 0 1,1 0,-.1M31,24.5a.5,.5 0 1,1 0,-.1M32,24.5a.5,.5 0 1,1 0,-.1M34,24.5a.5,.5 0 1,1 0,-.1M37,24.5a.5,.5 0 1,1 0,-.1M41,24.5a.5,.5 0 1,1 0,-.1M42,24.5a.5,.5 0 1,1 0,-.1M43,24.5a.5,.5 0 1,1 0,-.1M44,24.5a.5,.5 0 1,1 0,-.1M45,24.5a.5,.5 0 1,1 0,-.1M49,24.5a.5,.5 0 1,1 0,-.1M9,25.5a.5,.5 0 1,1 0,-.1M13,25.5a.5,.5 0 1,1 0,-.1M14,25.5a.5,.5 0 1,1 0,-.1M15,25.5a.5,.5 0 1,1 0,-.1M16,25.5a.5,.5 0 1,1 0,-.1M21,25.5a.5,.5 0 1,1 0,-.1M22,25.5a.5,.5 0 1,1 0,-.1M25,25.5a.5,.5 0 1,1 0,-.1M29,25.5a.5,.5 0 1,1 0,-.1M30,25.5a.5,.5 0 1,1 0,-.1M31,25.5a.5,.5 0 1,1 0,-.1M34,25.5a.5,.5 0 1,1 0,-.1M35,25.5a.5,.5 0 1,1 0,-.1M36,25.5a.5,.5 0 1,1 0,-.1M37,25.5a.5,.5 0 1,1 0,-.1M40,25.5a.5,.5 0 1,1 0,-.1M41,25.5a.5,.5 0 1,1 0,-.1M45,25.5a.5,.5 0 1,1 0,-.1M46,25.5a.5,.5 0 1,1 0,-.1M47,25.5a.5,.5 0 1,1 0,-.1M48,25.5a.5,.5 0 1,1 0,-.1M9,26.5a.5,.5 0 1,1 0,-.1M11,26.5a.5,.5 0 1,1 0,-.1M13,26.5a.5,.5 0 1,1 0,-.1M15,26.5a.5,.5 0 1,1 0,-.1M17,26.5a.5,.5 0 1,1 0,-.1M19,26.5a.5,.5 0 1,1 0,-.1M20,26.5a.5,.5 0 1,1 0,-.1M21,26.5a.5,.5 0 1,1 0,-.1M23,26.5a.5,.5 0 1,1 0,-.1M24,26.5a.5,.5 0 1,1 0,-.1M25,26.5a.5,.5 0 1,1 0,-.1M27,26.5a.5,.5 0 1,1 0,-.1M29,26.5a.5,.5 0 1,1 0,-.1M30,26.5a.5,.5 0 1,1 0,-.1M34,26.5a.5,.5 0 1,1 0,-.1M35,26.5a.5,.5 0 1,1 0,-.1M36,26.5a.5,.5 0 1,1 0,-.1M38,26.5a.5,.5 0 1,1 0,-.1M41,26.5a.5,.5 0 1,1 0,-.1M43,26.5a.5,.5 0 1,1 0,-.1M45,26.5a.5,.5 0 1,1 0,-.1M46,26.5a.5,.5 0 1,1 0,-.1M48,26.5a.5,.5 0 1,1 0,-.1M7,27.5a.5,.5 0 1,1 0,-.1M9,27.5a.5,.5 0 1,1 0,-.1M13,27.5a.5,.5 0 1,1 0,-.1M15,27.5a.5,.5 0 1,1 0,-.1M19,27.5a.5,.5 0 1,1 0,-.1M20,27.5a.5,.5 0 1,1 0,-.1M21,27.5a.5,.5 0 1,1 0,-.1M22,27.5a.5,.5 0 1,1 0,-.1M23,27.5a.5,.5 0 1,1 0,-.1M24,27.5a.5,.5 0 1,1 0,-.1M25,27.5a.5,.5 0 1,1 0,-.1M29,27.5a.5,.5 0 1,1 0,-.1M30,27.5a.5,.5 0 1,1 0,-.1M31,27.5a.5,.5 0 1,1 0,-.1M32,27.5a.5,.5 0 1,1 0,-.1M35,27.5a.5,.5 0 1,1 0,-.1M37,27.5a.5,.5 0 1,1 0,-.1M40,27.5a.5,.5 0 1,1 0,-.1M41,27.5a.5,.5 0 1,1 0,-.1M45,27.5a.5,.5 0 1,1 0,-.1M5,28.5a.5,.5 0 1,1 0,-.1M6,28.5a.5,.5 0 1,1 0,-.1M7,28.5a.5,.5 0 1,1 0,-.1M8,28.5a.5,.5 0 1,1 0,-.1M9,28.5a.5,.5 0 1,1 0,-.1M10,28.5a.5,.5 0 1,1 0,-.1M11,28.5a.5,.5 0 1,1 0,-.1M12,28.5a.5,.5 0 1,1 0,-.1M13,28.5a.5,.5 0 1,1 0,-.1M14,28.5a.5,.5 0 1,1 0,-.1M17,28.5a.5,.5 0 1,1 0,-.1M18,28.5a.5,.5 0 1,1 0,-.1M19,28.5a.5,.5 0 1,1 0,-.1M21,28.5a.5,.5 0 1,1 0,-.1M22,28.5a.5,.5 0 1,1 0,-.1M24,28.5a.5,.5 0 1,1 0,-.1M25,28.5a.5,.5 0 1,1 0,-.1M26,28.5a.5,.5 0 1,1 0,-.1M27,28.5a.5,.5 0 1,1 0,-.1M28,28.5a.5,.5 0 1,1 0,-.1M29,28.5a.5,.5 0 1,1 0,-.1M32,28.5a.5,.5 0 1,1 0,-.1M34,28.5a.5,.5 0 1,1 0,-.1M36,28.5a.5,.5 0 1,1 0,-.1M37,28.5a.5,.5 0 1,1 0,-.1M41,28.5a.5,.5 0 1,1 0,-.1M42,28.5a.5,.5 0 1,1 0,-.1M43,28.5a.5,.5 0 1,1 0,-.1M44,28.5a.5,.5 0 1,1 0,-.1M45,28.5a.5,.5 0 1,1 0,-.1M46,28.5a.5,.5 0 1,1 0,-.1M5,29.5a.5,.5 0 1,1 0,-.1M6,29.5a.5,.5 0 1,1 0,-.1M8,29.5a.5,.5 0 1,1 0,-.1M12,29.5a.5,.5 0 1,1 0,-.1M14,29.5a.5,.5 0 1,1 0,-.1M16,29.5a.5,.5 0 1,1 0,-.1M17,29.5a.5,.5 0 1,1 0,-.1M20,29.5a.5,.5 0 1,1 0,-.1M21,29.5a.5,.5 0 1,1 0,-.1M23,29.5a.5,.5 0 1,1 0,-.1M27,29.5a.5,.5 0 1,1 0,-.1M29,29.5a.5,.5 0 1,1 0,-.1M31,29.5a.5,.5 0 1,1 0,-.1M32,29.5a.5,.5 0 1,1 0,-.1M34,29.5a.5,.5 0 1,1 0,-.1M35,29.5a.5,.5 0 1,1 0,-.1M36,29.5a.5,.5 0 1,1 0,-.1M38,29.5a.5,.5 0 1,1 0,-.1M43,29.5a.5,.5 0 1,1 0,-.1M44,29.5a.5,.5 0 1,1 0,-.1M47,29.5a.5,.5 0 1,1 0,-.1M48,29.5a.5,.5 0 1,1 0,-.1M8,30.5a.5,.5 0 1,1 0,-.1M10,30.5a.5,.5 0 1,1 0,-.1M11,30.5a.5,.5 0 1,1 0,-.1M16,30.5a.5,.5 0 1,1 0,-.1M18,30.5a.5,.5 0 1,1 0,-.1M19,30.5a.5,.5 0 1,1 0,-.1M20,30.5a.5,.5 0 1,1 0,-.1M22,30.5a.5,.5 0 1,1 0,-.1M23,30.5a.5,.5 0 1,1 0,-.1M25,30.5a.5,.5 0 1,1 0,-.1M26,30.5a.5,.5 0 1,1 0,-.1M28,30.5a.5,.5 0 1,1 0,-.1M29,30.5a.5,.5 0 1,1 0,-.1M31,30.5a.5,.5 0 1,1 0,-.1M33,30.5a.5,.5 0 1,1 0,-.1M34,30.5a.5,.5 0 1,1 0,-.1M35,30.5a.5,.5 0 1,1 0,-.1M36,30.5a.5,.5 0 1,1 0,-.1M38,30.5a.5,.5 0 1,1 0,-.1M40,30.5a.5,.5 0 1,1 0,-.1M42,30.5a.5,.5 0 1,1 0,-.1M46,30.5a.5,.5 0 1,1 0,-.1M47,30.5a.5,.5 0 1,1 0,-.1M48,30.5a.5,.5 0 1,1 0,-.1M5,31.5a.5,.5 0 1,1 0,-.1M8,31.5a.5,.5 0 1,1 0,-.1M9,31.5a.5,.5 0 1,1 0,-.1M12,31.5a.5,.5 0 1,1 0,-.1M17,31.5a.5,.5 0 1,1 0,-.1M20,31.5a.5,.5 0 1,1 0,-.1M21,31.5a.5,.5 0 1,1 0,-.1M24,31.5a.5,.5 0 1,1 0,-.1M25,31.5a.5,.5 0 1,1 0,-.1M27,31.5a.5,.5 0 1,1 0,-.1M30,31.5a.5,.5 0 1,1 0,-.1M32,31.5a.5,.5 0 1,1 0,-.1M33,31.5a.5,.5 0 1,1 0,-.1M35,31.5a.5,.5 0 1,1 0,-.1M37,31.5a.5,.5 0 1,1 0,-.1M39,31.5a.5,.5 0 1,1 0,-.1M41,31.5a.5,.5 0 1,1 0,-.1M43,31.5a.5,.5 0 1,1 0,-.1M48,31.5a.5,.5 0 1,1 0,-.1M49,31.5a.5,.5 0 1,1 0,-.1M6,32.5a.5,.5 0 1,1 0,-.1M9,32.5a.5,.5 0 1,1 0,-.1M10,32.5a.5,.5 0 1,1 0,-.1M11,32.5a.5,.5 0 1,1 0,-.1M12,32.5a.5,.5 0 1,1 0,-.1M15,32.5a.5,.5 0 1,1 0,-.1M16,32.5a.5,.5 0 1,1 0,-.1M19,32.5a.5,.5 0 1,1 0,-.1M26,32.5a.5,.5 0 1,1 0,-.1M30,32.5a.5,.5 0 1,1 0,-.1M31,32.5a.5,.5 0 1,1 0,-.1M32,32.5a.5,.5 0 1,1 0,-.1M33,32.5a.5,.5 0 1,1 0,-.1M37,32.5a.5,.5 0 1,1 0,-.1M39,32.5a.5,.5 0 1,1 0,-.1M42,32.5a.5,.5 0 1,1 0,-.1M44,32.5a.5,.5 0 1,1 0,-.1M45,32.5a.5,.5 0 1,1 0,-.1M46,32.5a.5,.5 0 1,1 0,-.1M48,32.5a.5,.5 0 1,1 0,-.1M6,33.5a.5,.5 0 1,1 0,-.1M7,33.5a.5,.5 0 1,1 0,-.1M9,33.5a.5,.5 0 1,1 0,-.1M10,33.5a.5,.5 0 1,1 0,-.1M12,33.5a.5,.5 0 1,1 0,-.1M13,33.5a.5,.5 0 1,1 0,-.1M16,33.5a.5,.5 0 1,1 0,-.1M18,33.5a.5,.5 0 1,1 0,-.1M19,33.5a.5,.5 0 1,1 0,-.1M20,33.5a.5,.5 0 1,1 0,-.1M21,33.5a.5,.5 0 1,1 0,-.1M24,33.5a.5,.5 0 1,1 0,-.1M25,33.5a.5,.5 0 1,1 0,-.1M27,33.5a.5,.5 0 1,1 0,-.1M28,33.5a.5,.5 0 1,1 0,-.1M31,33.5a.5,.5 0 1,1 0,-.1M33,33.5a.5,.5 0 1,1 0,-.1M34,33.5a.5,.5 0 1,1 0,-.1M36,33.5a.5,.5 0 1,1 0,-.1M38,33.5a.5,.5 0 1,1 0,-.1M40,33.5a.5,.5 0 1,1 0,-.1M42,33.5a.5,.5 0 1,1 0,-.1M44,33.5a.5,.5 0 1,1 0,-.1M46,33.5a.5,.5 0 1,1 0,-.1M47,33.5a.5,.5 0 1,1 0,-.1M48,33.5a.5,.5 0 1,1 0,-.1M7,34.5a.5,.5 0 1,1 0,-.1M8,34.5a.5,.5 0 1,1 0,-.1M10,34.5a.5,.5 0 1,1 0,-.1M11,34.5a.5,.5 0 1,1 0,-.1M12,34.5a.5,.5 0 1,1 0,-.1M13,34.5a.5,.5 0 1,1 0,-.1M16,34.5a.5,.5 0 1,1 0,-.1M17,34.5a.5,.5 0 1,1 0,-.1M19,34.5a.5,.5 0 1,1 0,-.1M25,34.5a.5,.5 0 1,1 0,-.1M30,34.5a.5,.5 0 1,1 0,-.1M31,34.5a.5,.5 0 1,1 0,-.1M34,34.5a.5,.5 0 1,1 0,-.1M36,34.5a.5,.5 0 1,1 0,-.1M37,34.5a.5,.5 0 1,1 0,-.1M38,34.5a.5,.5 0 1,1 0,-.1M41,34.5a.5,.5 0 1,1 0,-.1M44,34.5a.5,.5 0 1,1 0,-.1M45,34.5a.5,.5 0 1,1 0,-.1M46,34.5a.5,.5 0 1,1 0,-.1M48,34.5a.5,.5 0 1,1 0,-.1M5,35.5a.5,.5 0 1,1 0,-.1M6,35.5a.5,.5 0 1,1 0,-.1M7,35.5a.5,.5 0 1,1 0,-.1M8,35.5a.5,.5 0 1,1 0,-.1M15,35.5a.5,.5 0 1,1 0,-.1M16,35.5a.5,.5 0 1,1 0,-.1M17,35.5a.5,.5 0 1,1 0,-.1M18,35.5a.5,.5 0 1,1 0,-.1M19,35.5a.5,.5 0 1,1 0,-.1M20,35.5a.5,.5 0 1,1 0,-.1M21,35.5a.5,.5 0 1,1 0,-.1M23,35.5a.5,.5 0 1,1 0,-.1M26,35.5a.5,.5 0 1,1 0,-.1M27,35.5a.5,.5 0 1,1 0,-.1M28,35.5a.5,.5 0 1,1 0,-.1M30,35.5a.5,.5 0 1,1 0,-.1M31,35.5a.5,.5 0 1,1 0,-.1M35,35.5a.5,.5 0 1,1 0,-.1M37,35.5a.5,.5 0 1,1 0,-.1M41,35.5a.5,.5 0 1,1 0,-.1M43,35.5a.5,.5 0 1,1 0,-.1M44,35.5a.5,.5 0 1,1 0,-.1M45,35.5a.5,.5 0 1,1 0,-.1M48,35.5a.5,.5 0 1,1 0,-.1M49,35.5a.5,.5 0 1,1 0,-.1M5,36.5a.5,.5 0 1,1 0,-.1M11,36.5a.5,.5 0 1,1 0,-.1M12,36.5a.5,.5 0 1,1 0,-.1M18,36.5a.5,.5 0 1,1 0,-.1M20,36.5a.5,.5 0 1,1 0,-.1M23,36.5a.5,.5 0 1,1 0,-.1M24,36.5a.5,.5 0 1,1 0,-.1M25,36.5a.5,.5 0 1,1 0,-.1M28,36.5a.5,.5 0 1,1 0,-.1M29,36.5a.5,.5 0 1,1 0,-.1M31,36.5a.5,.5 0 1,1 0,-.1M32,36.5a.5,.5 0 1,1 0,-.1M34,36.5a.5,.5 0 1,1 0,-.1M37,36.5a.5,.5 0 1,1 0,-.1M38,36.5a.5,.5 0 1,1 0,-.1M45,36.5a.5,.5 0 1,1 0,-.1M48,36.5a.5,.5 0 1,1 0,-.1M49,36.5a.5,.5 0 1,1 0,-.1M7,37.5a.5,.5 0 1,1 0,-.1M10,37.5a.5,.5 0 1,1 0,-.1M12,37.5a.5,.5 0 1,1 0,-.1M15,37.5a.5,.5 0 1,1 0,-.1M22,37.5a.5,.5 0 1,1 0,-.1M27,37.5a.5,.5 0 1,1 0,-.1M29,37.5a.5,.5 0 1,1 0,-.1M31,37.5a.5,.5 0 1,1 0,-.1M32,37.5a.5,.5 0 1,1 0,-.1M33,37.5a.5,.5 0 1,1 0,-.1M34,37.5a.5,.5 0 1,1 0,-.1M35,37.5a.5,.5 0 1,1 0,-.1M38,37.5a.5,.5 0 1,1 0,-.1M40,37.5a.5,.5 0 1,1 0,-.1M42,37.5a.5,.5 0 1,1 0,-.1M47,37.5a.5,.5 0 1,1 0,-.1M48,37.5a.5,.5 0 1,1 0,-.1M9,38.5a.5,.5 0 1,1 0,-.1M11,38.5a.5,.5 0 1,1 0,-.1M12,38.5a.5,.5 0 1,1 0,-.1M13,38.5a.5,.5 0 1,1 0,-.1M15,38.5a.5,.5 0 1,1 0,-.1M16,38.5a.5,.5 0 1,1 0,-.1M19,38.5a.5,.5 0 1,1 0,-.1M22,38.5a.5,.5 0 1,1 0,-.1M23,38.5a.5,.5 0 1,1 0,-.1M25,38.5a.5,.5 0 1,1 0,-.1M28,38.5a.5,.5 0 1,1 0,-.1M29,38.5a.5,.5 0 1,1 0,-.1M31,38.5a.5,.5 0 1,1 0,-.1M35,38.5a.5,.5 0 1,1 0,-.1M37,38.5a.5,.5 0 1,1 0,-.1M38,38.5a.5,.5 0 1,1 0,-.1M40,38.5a.5,.5 0 1,1 0,-.1M42,38.5a.5,.5 0 1,1 0,-.1M44,38.5a.5,.5 0 1,1 0,-.1M48,38.5a.5,.5 0 1,1 0,-.1M6,39.5a.5,.5 0 1,1 0,-.1M7,39.5a.5,.5 0 1,1 0,-.1M8,39.5a.5,.5 0 1,1 0,-.1M9,39.5a.5,.5 0 1,1 0,-.1M12,39.5a.5,.5 0 1,1 0,-.1M13,39.5a.5,.5 0 1,1 0,-.1M14,39.5a.5,.5 0 1,1 0,-.1M21,39.5a.5,.5 0 1,1 0,-.1M22,39.5a.5,.5 0 1,1 0,-.1M25,39.5a.5,.5 0 1,1 0,-.1M26,39.5a.5,.5 0 1,1 0,-.1M30,39.5a.5,.5 0 1,1 0,-.1M31,39.5a.5,.5 0 1,1 0,-.1M32,39.5a.5,.5 0 1,1 0,-.1M34,39.5a.5,.5 0 1,1 0,-.1M35,39.5a.5,.5 0 1,1 0,-.1M36,39.5a.5,.5 0 1,1 0,-.1M37,39.5a.5,.5 0 1,1 0,-.1M43,39.5a.5,.5 0 1,1 0,-.1M48,39.5a.5,.5 0 1,1 0,-.1M49,39.5a.5,.5 0 1,1 0,-.1M5,40.5a.5,.5 0 1,1 0,-.1M8,40.5a.5,.5 0 1,1 0,-.1M9,40.5a.5,.5 0 1,1 0,-.1M11,40.5a.5,.5 0 1,1 0,-.1M12,40.5a.5,.5 0 1,1 0,-.1M18,40.5a.5,.5 0 1,1 0,-.1M23,40.5a.5,.5 0 1,1 0,-.1M25,40.5a.5,.5 0 1,1 0,-.1M26,40.5a.5,.5 0 1,1 0,-.1M27,40.5a.5,.5 0 1,1 0,-.1M28,40.5a.5,.5 0 1,1 0,-.1M29,40.5a.5,.5 0 1,1 0,-.1M30,40.5a.5,.5 0 1,1 0,-.1M32,40.5a.5,.5 0 1,1 0,-.1M34,40.5a.5,.5 0 1,1 0,-.1M35,40.5a.5,.5 0 1,1 0,-.1M37,40.5a.5,.5 0 1,1 0,-.1M39,40.5a.5,.5 0 1,1 0,-.1M41,40.5a.5,.5 0 1,1 0,-.1M42,40.5a.5,.5 0 1,1 0,-.1M43,40.5a.5,.5 0 1,1 0,-.1M44,40.5a.5,.5 0 1,1 0,-.1M45,40.5a.5,.5 0 1,1 0,-.1M13,41.5a.5,.5 0 1,1 0,-.1M15,41.5a.5,.5 0 1,1 0,-.1M16,41.5a.5,.5 0 1,1 0,-.1M18,41.5a.5,.5 0 1,1 0,-.1M19,41.5a.5,.5 0 1,1 0,-.1M22,41.5a.5,.5 0 1,1 0,-.1M24,41.5a.5,.5 0 1,1 0,-.1M25,41.5a.5,.5 0 1,1 0,-.1M29,41.5a.5,.5 0 1,1 0,-.1M34,41.5a.5,.5 0 1,1 0,-.1M35,41.5a.5,.5 0 1,1 0,-.1M36,41.5a.5,.5 0 1,1 0,-.1M37,41.5a.5,.5 0 1,1 0,-.1M38,41.5a.5,.5 0 1,1 0,-.1M40,41.5a.5,.5 0 1,1 0,-.1M41,41.5a.5,.5 0 1,1 0,-.1M45,41.5a.5,.5 0 1,1 0,-.1M46,41.5a.5,.5 0 1,1 0,-.1M47,41.5a.5,.5 0 1,1 0,-.1M48,41.5a.5,.5 0 1,1 0,-.1M5,42.5a.5,.5 0 1,1 0,-.1M6,42.5a.5,.5 0 1,1 0,-.1M7,42.5a.5,.5 0 1,1 0,-.1M8,42.5a.5,.5 0 1,1 0,-.1M9,42.5a.5,.5 0 1,1 0,-.1M10,42.5a.5,.5 0 1,1 0,-.1M11,42.5a.5,.5 0 1,1 0,-.1M13,42.5a.5,.5 0 1,1 0,-.1M15,42.5a.5,.5 0 1,1 0,-.1M16,42.5a.5,.5 0 1,1 0,-.1M19,42.5a.5,.5 0 1,1 0,-.1M20,42.5a.5,.5 0 1,1 0,-.1M24,42.5a.5,.5 0 1,1 0,-.1M25,42.5a.5,.5 0 1,1 0,-.1M27,42.5a.5,.5 0 1,1 0,-.1M29,42.5a.5,.5 0 1,1 0,-.1M34,42.5a.5,.5 0 1,1 0,-.1M35,42.5a.5,.5 0 1,1 0,-.1M37,42.5a.5,.5 0 1,1 0,-.1M38,42.5a.5,.5 0 1,1 0,-.1M41,42.5a.5,.5 0 1,1 0,-.1M43,42.5a.5,.5 0 1,1 0,-.1M45,42.5a.5,.5 0 1,1 0,-.1M46,42.5a.5,.5 0 1,1 0,-.1M48,42.5a.5,.5 0 1,1 0,-.1M5,43.5a.5,.5 0 1,1 0,-.1M11,43.5a.5,.5 0 1,1 0,-.1M15,43.5a.5,.5 0 1,1 0,-.1M16,43.5a.5,.5 0 1,1 0,-.1M19,43.5a.5,.5 0 1,1 0,-.1M20,43.5a.5,.5 0 1,1 0,-.1M21,43.5a.5,.5 0 1,1 0,-.1M24,43.5a.5,.5 0 1,1 0,-.1M25,43.5a.5,.5 0 1,1 0,-.1M29,43.5a.5,.5 0 1,1 0,-.1M31,43.5a.5,.5 0 1,1 0,-.1M32,43.5a.5,.5 0 1,1 0,-.1M34,43.5a.5,.5 0 1,1 0,-.1M37,43.5a.5,.5 0 1,1 0,-.1M38,43.5a.5,.5 0 1,1 0,-.1M39,43.5a.5,.5 0 1,1 0,-.1M41,43.5a.5,.5 0 1,1 0,-.1M45,43.5a.5,.5 0 1,1 0,-.1M5,44.5a.5,.5 0 1,1 0,-.1M7,44.5a.5,.5 0 1,1 0,-.1M8,44.5a.5,.5 0 1,1 0,-.1M9,44.5a.5,.5 0 1,1 0,-.1M11,44.5a.5,.5 0 1,1 0,-.1M13,44.5a.5,.5 0 1,1 0,-.1M15,44.5a.5,.5 0 1,1 0,-.1M17,44.5a.5,.5 0 1,1 0,-.1M19,44.5a.5,.5 0 1,1 0,-.1M22,44.5a.5,.5 0 1,1 0,-.1M24,44.5a.5,.5 0 1,1 0,-.1M25,44.5a.5,.5 0 1,1 0,-.1M26,44.5a.5,.5 0 1,1 0,-.1M27,44.5a.5,.5 0 1,1 0,-.1M28,44.5a.5,.5 0 1,1 0,-.1M29,44.5a.5,.5 0 1,1 0,-.1M32,44.5a.5,.5 0 1,1 0,-.1M37,44.5a.5,.5 0 1,1 0,-.1M38,44.5a.5,.5 0 1,1 0,-.1M40,44.5a.5,.5 0 1,1 0,-.1M41,44.5a.5,.5 0 1,1 0,-.1M42,44.5a.5,.5 0 1,1 0,-.1M43,44.5a.5,.5 0 1,1 0,-.1M44,44.5a.5,.5 0 1,1 0,-.1M45,44.5a.5,.5 0 1,1 0,-.1M46,44.5a.5,.5 0 1,1 0,-.1M5,45.5a.5,.5 0 1,1 0,-.1M7,45.5a.5,.5 0 1,1 0,-.1M8,45.5a.5,.5 0 1,1 0,-.1M9,45.5a.5,.5 0 1,1 0,-.1M11,45.5a.5,.5 0 1,1 0,-.1M14,45.5a.5,.5 0 1,1 0,-.1M15,45.5a.5,.5 0 1,1 0,-.1M16,45.5a.5,.5 0 1,1 0,-.1M17,45.5a.5,.5 0 1,1 0,-.1M21,45.5a.5,.5 0 1,1 0,-.1M22,45.5a.5,.5 0 1,1 0,-.1M26,45.5a.5,.5 0 1,1 0,-.1M27,45.5a.5,.5 0 1,1 0,-.1M30,45.5a.5,.5 0 1,1 0,-.1M31,45.5a.5,.5 0 1,1 0,-.1M35,45.5a.5,.5 0 1,1 0,-.1M38,45.5a.5,.5 0 1,1 0,-.1M42,45.5a.5,.5 0 1,1 0,-.1M43,45.5a.5,.5 0 1,1 0,-.1M45,45.5a.5,.5 0 1,1 0,-.1M48,45.5a.5,.5 0 1,1 0,-.1M5,46.5a.5,.5 0 1,1 0,-.1M7,46.5a.5,.5 0 1,1 0,-.1M8,46.5a.5,.5 0 1,1 0,-.1M9,46.5a.5,.5 0 1,1 0,-.1M11,46.5a.5,.5 0 1,1 0,-.1M19,46.5a.5,.5 0 1,1 0,-.1M23,46.5a.5,.5 0 1,1 0,-.1M24,46.5a.5,.5 0 1,1 0,-.1M25,46.5a.5,.5 0 1,1 0,-.1M26,46.5a.5,.5 0 1,1 0,-.1M27,46.5a.5,.5 0 1,1 0,-.1M31,46.5a.5,.5 0 1,1 0,-.1M33,46.5a.5,.5 0 1,1 0,-.1M34,46.5a.5,.5 0 1,1 0,-.1M35,46.5a.5,.5 0 1,1 0,-.1M36,46.5a.5,.5 0 1,1 0,-.1M37,46.5a.5,.5 0 1,1 0,-.1M38,46.5a.5,.5 0 1,1 0,-.1M43,46.5a.5,.5 0 1,1 0,-.1M45,46.5a.5,.5 0 1,1 0,-.1M48,46.5a.5,.5 0 1,1 0,-.1M5,47.5a.5,.5 0 1,1 0,-.1M11,47.5a.5,.5 0 1,1 0,-.1M16,47.5a.5,.5 0 1,1 0,-.1M20,47.5a.5,.5 0 1,1 0,-.1M22,47.5a.5,.5 0 1,1 0,-.1M23,47.5a.5,.5 0 1,1 0,-.1M25,47.5a.5,.5 0 1,1 0,-.1M28,47.5a.5,.5 0 1,1 0,-.1M29,47.5a.5,.5 0 1,1 0,-.1M33,47.5a.5,.5 0 1,1 0,-.1M34,47.5a.5,.5 0 1,1 0,-.1M37,47.5a.5,.5 0 1,1 0,-.1M38,47.5a.5,.5 0 1,1 0,-.1M40,47.5a.5,.5 0 1,1 0,-.1M41,47.5a.5,.5 0 1,1 0,-.1M42,47.5a.5,.5 0 1,1 0,-.1M44,47.5a.5,.5 0 1,1 0,-.1M45,47.5a.5,.5 0 1,1 0,-.1M46,47.5a.5,.5 0 1,1 0,-.1M5,48.5a.5,.5 0 1,1 0,-.1M6,48.5a.5,.5 0 1,1 0,-.1M7,48.5a.5,.5 0 1,1 0,-.1M8,48.5a.5,.5 0 1,1 0,-.1M9,48.5a.5,.5 0 1,1 0,-.1M10,48.5a.5,.5 0 1,1 0,-.1M11,48.5a.5,.5 0 1,1 0,-.1M13,48.5a.5,.5 0 1,1 0,-.1M18,48.5a.5,.5 0 1,1 0,-.1M20,48.5a.5,.5 0 1,1 0,-.1M24,48.5a.5,.5 0 1,1 0,-.1M25,48.5a.5,.5 0 1,1 0,-.1M26,48.5a.5,.5 0 1,1 0,-.1M28,48.5a.5,.5 0 1,1 0,-.1M29,48.5a.5,.5 0 1,1 0,-.1M30,48.5a.5,.5 0 1,1 0,-.1M34,48.5a.5,.5 0 1,1 0,-.1M35,48.5a.5,.5 0 1,1 0,-.1M37,48.5a.5,.5 0 1,1 0,-.1M38,48.5a.5,.5 0 1,1 0,-.1M40,48.5a.5,.5 0 1,1 0,-.1M42,48.5a.5,.5 0 1,1 0,-.1M45,48.5a.5,.5 0 1,1 0,-.1M49,48.5a.5,.5 0 1,1 0,-.1" fill="#000000"/></svg>